<svg width="158" height="162" viewBox="0 0 158 162" fill="none" xmlns="http://www.w3.org/2000/svg">
<path d="M15.8076 119.808C13.2692 122.346 13.2692 126.462 15.8076 129C18.346 131.538 22.4616 131.538 25 129L15.8076 119.808ZM143.904 7.40381C143.904 3.81396 140.994 0.903814 137.404 0.903814L78.9038 0.903814C75.314 0.903814 72.4038 3.81396 72.4038 7.40381C72.4038 10.9937 75.314 13.9038 78.9038 13.9038H130.904V65.9038C130.904 69.4937 133.814 72.4038 137.404 72.4038C140.994 72.4038 143.904 69.4937 143.904 65.9038V7.40381ZM25 129L142 12L132.808 2.80762L15.8076 119.808L25 129Z" fill="black"/>
<path d="M6 156H152" stroke="#959B9E" stroke-width="12" stroke-linecap="round"/>
</svg>
