<svg width="18" height="16" viewBox="0 0 18 16" fill="none" xmlns="http://www.w3.org/2000/svg">
<path d="M9.00033 15.5002L7.79199 14.4168C6.38921 13.1529 5.22949 12.0627 4.31283 11.146C3.39616 10.2293 2.66699 9.40641 2.12533 8.67725C1.58366 7.94808 1.20519 7.27794 0.989909 6.66683C0.774631 6.05572 0.666992 5.43072 0.666992 4.79183C0.666992 3.48627 1.10449 2.396 1.97949 1.521C2.85449 0.645996 3.94477 0.208496 5.25033 0.208496C5.97255 0.208496 6.66005 0.361274 7.31283 0.666829C7.9656 0.972385 8.5281 1.40294 9.00033 1.9585C9.47255 1.40294 10.035 0.972385 10.6878 0.666829C11.3406 0.361274 12.0281 0.208496 12.7503 0.208496C14.0559 0.208496 15.1462 0.645996 16.0212 1.521C16.8962 2.396 17.3337 3.48627 17.3337 4.79183C17.3337 5.43072 17.226 6.05572 17.0107 6.66683C16.7955 7.27794 16.417 7.94808 15.8753 8.67725C15.3337 9.40641 14.6045 10.2293 13.6878 11.146C12.7712 12.0627 11.6114 13.1529 10.2087 14.4168L9.00033 15.5002Z" fill="#F62424"/>
</svg>
