<svg width="18" height="16" viewBox="0 0 18 16" fill="none" xmlns="http://www.w3.org/2000/svg">
<path d="M9.00033 15.5002L7.79199 14.4168C6.38921 13.1529 5.22949 12.0627 4.31283 11.146C3.39616 10.2293 2.66699 9.40641 2.12533 8.67725C1.58366 7.94808 1.20519 7.27794 0.989909 6.66683C0.774631 6.05572 0.666992 5.43072 0.666992 4.79183C0.666992 3.48627 1.10449 2.396 1.97949 1.521C2.85449 0.645996 3.94477 0.208496 5.25033 0.208496C5.97255 0.208496 6.66005 0.361274 7.31283 0.666829C7.9656 0.972385 8.5281 1.40294 9.00033 1.9585C9.47255 1.40294 10.035 0.972385 10.6878 0.666829C11.3406 0.361274 12.0281 0.208496 12.7503 0.208496C14.0559 0.208496 15.1462 0.645996 16.0212 1.521C16.8962 2.396 17.3337 3.48627 17.3337 4.79183C17.3337 5.43072 17.226 6.05572 17.0107 6.66683C16.7955 7.27794 16.417 7.94808 15.8753 8.67725C15.3337 9.40641 14.6045 10.2293 13.6878 11.146C12.7712 12.0627 11.6114 13.1529 10.2087 14.4168L9.00033 15.5002ZM9.00033 13.2502C10.3337 12.0557 11.4309 11.0314 12.292 10.1772C13.1531 9.32308 13.8337 8.58002 14.3337 7.94808C14.8337 7.31613 15.1809 6.75363 15.3753 6.26058C15.5698 5.76752 15.667 5.27794 15.667 4.79183C15.667 3.9585 15.3892 3.26405 14.8337 2.7085C14.2781 2.15294 13.5837 1.87516 12.7503 1.87516C12.0975 1.87516 11.4934 2.05919 10.9378 2.42725C10.3823 2.7953 10.0003 3.26405 9.79199 3.8335H8.20866C8.00033 3.26405 7.61838 2.7953 7.06283 2.42725C6.50727 2.05919 5.9031 1.87516 5.25033 1.87516C4.41699 1.87516 3.72255 2.15294 3.16699 2.7085C2.61144 3.26405 2.33366 3.9585 2.33366 4.79183C2.33366 5.27794 2.43088 5.76752 2.62533 6.26058C2.81977 6.75363 3.16699 7.31613 3.66699 7.94808C4.16699 8.58002 4.84755 9.32308 5.70866 10.1772C6.56977 11.0314 7.66699 12.0557 9.00033 13.2502Z" fill="#7E8299"/>
</svg>
