<svg width="31" height="28" viewBox="0 0 31 28" fill="none" xmlns="http://www.w3.org/2000/svg">
<path opacity="0.3" d="M15.3945 24.7803C17.4915 24.7803 19.1914 23.2693 19.1914 21.4053C19.1914 19.5413 17.4915 18.0303 15.3945 18.0303C13.2975 18.0303 11.5977 19.5413 11.5977 21.4053C11.5977 23.2693 13.2975 24.7803 15.3945 24.7803Z" fill="#64748B"/>
<path d="M24.2539 16.9053V20.2803C24.2539 20.9553 23.7477 21.4053 22.9883 21.4053H7.80078C7.04141 21.4053 6.53516 20.9553 6.53516 20.2803V16.9053C7.92734 16.9053 9.06641 15.8928 9.06641 14.6553V11.2803C9.06641 8.58027 11.218 6.33027 14.1289 5.76777V3.40527C14.1289 2.73027 14.6352 2.28027 15.3945 2.28027C16.1539 2.28027 16.6602 2.73027 16.6602 3.40527V5.76777C19.5711 6.33027 21.7227 8.58027 21.7227 11.2803V14.6553C21.7227 15.8928 22.8617 16.9053 24.2539 16.9053ZM14.1289 11.2803C14.1289 10.6053 14.6352 10.1553 15.3945 10.1553C16.1539 10.1553 16.6602 9.70527 16.6602 9.03027C16.6602 8.35527 16.1539 7.90527 15.3945 7.90527C13.243 7.90527 11.5977 9.36777 11.5977 11.2803C11.5977 11.9553 12.1039 12.4053 12.8633 12.4053C13.6227 12.4053 14.1289 11.9553 14.1289 11.2803Z" fill="#64748B"/>
</svg>
