<svg width="5" height="17" viewBox="0 0 5 17" fill="none" xmlns="http://www.w3.org/2000/svg">
<path d="M2.5 16.0298C1.95 16.0298 1.47933 15.8341 1.088 15.4428C0.696 15.0508 0.5 14.5798 0.5 14.0298C0.5 13.4798 0.696 13.0088 1.088 12.6168C1.47933 12.2255 1.95 12.0298 2.5 12.0298C3.05 12.0298 3.521 12.2255 3.913 12.6168C4.30433 13.0088 4.5 13.4798 4.5 14.0298C4.5 14.5798 4.30433 15.0508 3.913 15.4428C3.521 15.8341 3.05 16.0298 2.5 16.0298ZM2.5 10.0298C1.95 10.0298 1.47933 9.83379 1.088 9.44178C0.696 9.05045 0.5 8.57979 0.5 8.02979C0.5 7.47978 0.696 7.00879 1.088 6.61679C1.47933 6.22545 1.95 6.02979 2.5 6.02979C3.05 6.02979 3.521 6.22545 3.913 6.61679C4.30433 7.00879 4.5 7.47978 4.5 8.02979C4.5 8.57979 4.30433 9.05045 3.913 9.44178C3.521 9.83379 3.05 10.0298 2.5 10.0298ZM2.5 4.02979C1.95 4.02979 1.47933 3.83379 1.088 3.44179C0.696 3.05045 0.5 2.57979 0.5 2.02979C0.5 1.47979 0.696 1.00912 1.088 0.617785C1.47933 0.225785 1.95 0.0297852 2.5 0.0297852C3.05 0.0297852 3.521 0.225785 3.913 0.617785C4.30433 1.00912 4.5 1.47979 4.5 2.02979C4.5 2.57979 4.30433 3.05045 3.913 3.44179C3.521 3.83379 3.05 4.02979 2.5 4.02979Z" fill="#7E8299"/>
</svg>
