<svg width="22" height="22" viewBox="0 0 22 22" fill="none" xmlns="http://www.w3.org/2000/svg">
<path opacity="0.3" d="M13.1018 15.3148C12.7438 14.9569 12.7438 14.3765 13.1018 14.0185C13.4598 13.6605 14.0402 13.6605 14.3982 14.0185L18.0649 17.6852C18.4228 18.0431 18.4228 18.6235 18.0649 18.9815C17.7069 19.3395 17.1265 19.3395 16.7685 18.9815L13.1018 15.3148Z" fill="#4B5675"/>
<path fill-rule="evenodd" clip-rule="evenodd" d="M3.66666 10.0832C3.66666 13.627 6.5395 16.4998 10.0833 16.4998C13.6271 16.4998 16.5 13.627 16.5 10.0832C16.5 6.53934 13.6271 3.6665 10.0833 3.6665C6.5395 3.6665 3.66666 6.53934 3.66666 10.0832ZM14.6667 10.0832C14.6667 12.6145 12.6146 14.6665 10.0833 14.6665C7.55202 14.6665 5.49999 12.6145 5.49999 10.0832C5.49999 7.55187 7.55202 5.49984 10.0833 5.49984C12.6146 5.49984 14.6667 7.55187 14.6667 10.0832Z" fill="#4B5675"/>
</svg>
