<svg width="41" height="40" viewBox="0 0 41 40" fill="none" xmlns="http://www.w3.org/2000/svg">
<path opacity="0.3" d="M35.7533 30.8751L22.0866 36.3751C20.9199 36.8751 19.7533 36.8751 18.5866 36.3751L4.91992 30.8751C3.25326 30.2085 3.25326 27.8751 4.91992 27.2085L7.08657 26.3751L17.4199 30.5418C18.4199 30.8751 19.4199 31.0418 20.4199 31.0418C21.4199 31.0418 22.4199 30.8751 23.4199 30.5418L33.7532 26.3751L35.9199 27.2085C37.5866 27.8751 37.5866 30.2085 35.7533 30.8751ZM22.0866 27.3751L35.7533 21.8751C37.4199 21.2085 37.4199 18.8751 35.7533 18.2085L22.0866 12.7085C20.9199 12.2085 19.7533 12.2085 18.5866 12.7085L4.91992 18.2085C3.25326 18.8751 3.25326 21.2085 4.91992 21.8751L18.5866 27.3751C19.7533 27.8751 21.0866 27.8751 22.0866 27.3751Z" fill="#009ED8"/>
<path d="M18.7532 18.3752L5.08655 12.8752C3.41988 12.2085 3.41988 9.87516 5.08655 9.2085L18.7532 3.7085C19.9199 3.2085 21.0866 3.2085 22.2532 3.7085L35.9199 9.2085C37.5866 9.87516 37.5866 12.2085 35.9199 12.8752L22.0866 18.3752C21.0866 18.8752 19.7532 18.8752 18.7532 18.3752Z" fill="#009ED8"/>
</svg>
