<svg width="40" height="40" viewBox="0 0 40 40" fill="none" xmlns="http://www.w3.org/2000/svg">
<path opacity="0.3" d="M35.417 30.8751L21.7503 36.3751C20.5836 36.8751 19.417 36.8751 18.2503 36.3751L4.58363 30.8751C2.91697 30.2085 2.91697 27.8751 4.58363 27.2085L6.75028 26.3751L17.0836 30.5418C18.0836 30.8751 19.0836 31.0418 20.0836 31.0418C21.0836 31.0418 22.0836 30.8751 23.0836 30.5418L33.417 26.3751L35.5836 27.2085C37.2503 27.8751 37.2503 30.2085 35.417 30.8751ZM21.7503 27.3751L35.417 21.8751C37.0836 21.2085 37.0836 18.8751 35.417 18.2085L21.7503 12.7085C20.5836 12.2085 19.417 12.2085 18.2503 12.7085L4.58363 18.2085C2.91697 18.8751 2.91697 21.2085 4.58363 21.8751L18.2503 27.3751C19.417 27.8751 20.7503 27.8751 21.7503 27.3751Z" fill="#20D489"/>
<path d="M18.417 18.3752L4.75026 12.8752C3.08359 12.2085 3.08359 9.87516 4.75026 9.2085L18.417 3.7085C19.5836 3.2085 20.7503 3.2085 21.917 3.7085L35.5836 9.2085C37.2503 9.87516 37.2503 12.2085 35.5836 12.8752L21.7503 18.3752C20.7503 18.8752 19.417 18.8752 18.417 18.3752Z" fill="#20D489"/>
</svg>
