<svg width="27" height="27" viewBox="0 0 27 27" fill="none" xmlns="http://www.w3.org/2000/svg">
<path opacity="0.3" d="M23.2178 20.3027L14.4441 23.8335C13.6952 24.1545 12.9462 24.1545 12.1972 23.8335L3.42356 20.3027C2.3536 19.8747 2.3536 18.3768 3.42356 17.9488L4.8145 17.4138L11.4483 20.0887C12.0902 20.3027 12.7322 20.4097 13.3742 20.4097C14.0162 20.4097 14.6581 20.3027 15.3001 20.0887L21.9338 17.4138L23.3248 17.9488C24.3948 18.3768 24.3948 19.8747 23.2178 20.3027ZM14.4441 18.0558L23.2178 14.5249C24.2878 14.0969 24.2878 12.599 23.2178 12.171L14.4441 8.64015C13.6952 8.31917 12.9462 8.31917 12.1972 8.64015L3.42356 12.171C2.3536 12.599 2.3536 14.0969 3.42356 14.5249L12.1972 18.0558C12.9462 18.3768 13.8022 18.3768 14.4441 18.0558Z" fill="#FF8F6B"/>
<path d="M12.305 12.278L3.53135 8.7471C2.46139 8.31911 2.46139 6.82117 3.53135 6.39319L12.305 2.86232C13.054 2.54134 13.803 2.54134 14.5519 2.86232L23.3256 6.39319C24.3956 6.82117 24.3956 8.31911 23.3256 8.7471L14.445 12.278C13.803 12.5989 12.947 12.5989 12.305 12.278Z" fill="#FF8F6B"/>
</svg>
