<?xml version="1.0" standalone="no"?>
<!DOCTYPE svg PUBLIC "-//W3C//DTD SVG 20010904//EN"
 "http://www.w3.org/TR/2001/REC-SVG-20010904/DTD/svg10.dtd">
<svg version="1.0" xmlns="http://www.w3.org/2000/svg"
 width="1280.000000pt" height="1280.000000pt" viewBox="0 0 1280.000000 1280.000000"
 preserveAspectRatio="xMidYMid meet">

<g transform="translate(0.000000,1280.000000) scale(0.100000,-0.100000)"
fill="#000000" stroke="none">
<path d="M0 6400 l0 -6400 6400 0 6400 0 0 6400 0 6400 -6400 0 -6400 0 0
-6400z m6598 4244 c178 -36 288 -125 337 -272 13 -42 16 -78 13 -160 -3 -94
-7 -115 -32 -167 -37 -74 -115 -153 -188 -187 -114 -54 -147 -60 -400 -65
l-238 -6 0 300 c0 165 -3 361 -7 436 l-6 137 222 0 c163 0 242 -4 299 -16z
m-1508 -173 c0 -5 79 -176 175 -381 96 -205 175 -379 175 -386 0 -12 -121 -74
-144 -74 -6 0 -47 77 -91 171 -43 94 -83 173 -89 176 -10 6 -598 35 -603 29
-2 -2 26 -66 63 -142 36 -76 101 -214 144 -306 l77 -166 -79 -37 c-43 -21 -80
-36 -82 -34 -1 2 -21 45 -43 94 -23 50 -67 144 -99 210 -124 261 -224 479
-221 481 2 2 38 19 82 39 l79 36 215 -10 c119 -6 256 -13 304 -17 l88 -6 -14
34 c-17 38 -97 209 -104 221 -4 7 132 75 155 76 6 1 12 -3 12 -8z m2768 -31
l84 -35 -7 -354 c-6 -253 -5 -353 3 -350 6 2 121 114 256 248 145 144 251 241
258 238 7 -3 48 -20 92 -38 l78 -33 -53 -51 c-30 -28 -186 -175 -348 -327
l-295 -275 -60 27 c-34 15 -68 30 -77 33 -14 4 -17 42 -22 284 -9 370 -9 675
1 671 4 -1 45 -19 90 -38z m1590 -943 c65 -62 182 -176 262 -251 80 -76 146
-141 148 -145 1 -4 -21 -30 -50 -58 l-53 -52 -45 42 c-24 23 -114 108 -199
190 -85 81 -160 147 -166 147 -6 0 -34 -27 -62 -59 l-52 -59 97 -95 c53 -52
132 -127 175 -167 42 -40 77 -77 77 -81 0 -13 -80 -99 -91 -99 -5 0 -62 51
-127 113 -64 63 -144 139 -176 169 l-59 55 -83 -86 -84 -86 93 -90 c50 -49
143 -139 205 -199 61 -60 112 -112 112 -115 0 -4 -22 -29 -49 -55 l-50 -49
-38 33 c-21 18 -85 78 -143 134 -58 55 -157 151 -220 211 -63 61 -121 118
-128 127 -11 16 11 43 205 245 311 325 376 393 381 393 2 0 56 -51 120 -113z
m-5792 -321 c209 -63 399 -119 423 -126 77 -20 93 -29 84 -44 -4 -8 -32 -39
-61 -69 l-52 -56 -77 26 -76 26 -26 -31 c-14 -17 -89 -99 -166 -182 -77 -84
-142 -156 -143 -161 -2 -5 8 -39 22 -75 15 -36 24 -74 21 -83 -6 -19 -112
-127 -118 -120 -2 2 -38 90 -81 194 -42 105 -122 301 -178 437 l-100 247 58
65 c32 37 65 66 75 66 9 0 187 -51 395 -114z m3085 -301 c365 -49 720 -183
1034 -391 603 -398 1001 -1031 1102 -1748 23 -165 23 -507 0 -672 -65 -460
-258 -901 -550 -1254 -401 -483 -968 -800 -1591 -887 -165 -23 -507 -23 -672
0 -541 76 -1034 320 -1419 702 -397 393 -645 888 -722 1439 -23 165 -23 507 0
672 98 698 482 1322 1062 1723 359 249 769 392 1245 435 88 8 397 -3 511 -19z
m3699 -720 c29 -66 69 -158 90 -205 62 -138 80 -201 80 -285 0 -42 -6 -90 -14
-109 -36 -86 -150 -166 -256 -181 -62 -8 -141 13 -198 55 -23 16 -43 30 -45
30 -2 0 -41 -61 -87 -135 -46 -74 -87 -135 -90 -135 -3 0 -24 43 -47 94 l-41
95 69 106 c37 58 73 114 79 125 9 17 1 42 -42 140 -29 66 -57 120 -63 120 -5
0 -55 -20 -109 -45 -55 -25 -102 -45 -106 -45 -12 0 -73 151 -64 159 5 5 104
50 219 101 116 51 289 128 385 171 96 43 178 75 181 71 3 -4 29 -61 59 -127z
m-7268 -261 c32 -11 58 -24 58 -30 0 -7 -12 -43 -26 -80 -14 -38 -43 -118 -64
-179 -21 -60 -57 -162 -80 -225 -23 -63 -44 -123 -47 -133 -7 -23 48 -40 -556
177 -130 47 -241 86 -246 86 -22 0 -21 25 6 99 l28 79 120 -43 c66 -23 216
-77 334 -119 117 -43 215 -75 218 -72 5 5 142 377 143 387 1 23 33 80 43 76 7
-3 38 -13 69 -23z m-579 -1622 c50 -53 30 -136 -40 -163 -58 -22 -123 28 -123
94 0 58 38 97 95 97 32 0 47 -6 68 -28z m7824 13 c13 -9 28 -33 34 -54 15 -50
-8 -96 -57 -117 -29 -12 -39 -12 -68 0 -70 29 -88 105 -37 157 34 33 91 40
128 14z m-357 -1075 c13 -8 12 -16 -4 -65 -11 -30 -17 -57 -15 -59 2 -2 63
-22 134 -46 72 -24 131 -44 133 -45 1 -1 -3 -16 -9 -34 -7 -20 -16 -30 -25
-27 -36 14 -242 76 -252 76 -6 0 -19 -25 -28 -55 -18 -55 -32 -66 -64 -45 -12
7 -6 32 35 159 50 153 58 165 95 141z m-7236 -44 c86 -36 140 -154 117 -256
-13 -56 -62 -105 -121 -121 -86 -23 -160 9 -206 87 -24 40 -28 60 -29 119 0
64 3 76 29 109 50 66 138 92 210 62z m7219 -423 c78 -36 146 -69 150 -73 9 -8
-12 -60 -25 -60 -4 0 -39 14 -76 31 l-69 30 -91 -68 c-50 -37 -91 -72 -91 -78
0 -5 53 -34 118 -64 l119 -54 -15 -32 -16 -33 -86 40 c-47 22 -119 55 -158 74
l-72 33 10 30 c7 20 39 51 99 96 122 91 122 91 66 115 -25 12 -46 26 -46 31 0
17 20 49 31 49 5 0 74 -30 152 -67z m-6992 -24 c7 -14 10 -67 7 -150 -3 -143
-6 -139 66 -102 31 16 41 11 51 -27 6 -24 -1 -28 -142 -92 -82 -38 -153 -68
-159 -68 -10 0 -38 49 -32 55 2 2 35 18 73 37 l70 34 5 114 c3 63 4 118 3 122
-2 3 -55 -18 -117 -48 -63 -30 -119 -54 -124 -54 -8 0 -32 42 -32 56 0 2 39
23 88 45 48 23 114 54 147 69 73 35 81 36 96 9z m6662 -343 c9 -7 17 -16 17
-19 0 -3 -25 -45 -55 -93 -30 -49 -55 -91 -55 -96 0 -4 13 -14 28 -22 28 -14
29 -14 47 17 10 18 33 56 52 85 33 52 33 52 57 37 l24 -16 -49 -82 c-27 -45
-49 -85 -49 -89 0 -5 66 -48 75 -48 2 0 29 42 61 93 32 50 59 93 60 95 2 3 43
-16 53 -24 6 -5 -151 -254 -161 -254 -5 0 -58 32 -119 70 -60 39 -113 70 -117
70 -9 1 -52 36 -52 44 0 4 41 71 136 224 17 25 22 26 47 8z m-6456 -127 c51
-25 88 -66 119 -134 33 -70 32 -95 -5 -95 -23 0 -30 5 -36 28 -14 56 -54 110
-99 132 -41 19 -47 20 -78 7 -45 -19 -78 -62 -78 -100 0 -43 35 -111 77 -147
32 -28 34 -34 24 -56 -14 -32 -24 -31 -73 14 -49 44 -98 142 -98 195 0 72 56
145 128 167 45 14 74 11 119 -11z m6333 -323 c67 -54 124 -105 127 -113 3 -8
-4 -24 -15 -35 l-21 -21 -58 50 c-32 27 -75 62 -96 78 l-38 28 7 -86 7 -85
-49 -7 c-92 -11 -114 -16 -113 -23 0 -4 34 -34 76 -67 109 -86 106 -82 87
-111 -9 -13 -20 -24 -24 -24 -7 0 -133 100 -248 196 -25 21 -25 21 -6 47 15
20 30 27 74 32 148 16 135 4 120 119 -8 63 -6 73 12 98 11 16 24 28 28 26 5
-2 63 -47 130 -102z m-6065 -13 c17 -26 17 -27 -14 -52 -17 -14 -31 -30 -31
-34 0 -12 123 -157 133 -157 5 0 23 11 41 25 l33 25 17 -25 c10 -15 16 -30 14
-34 -4 -11 -249 -211 -258 -211 -3 0 -16 10 -28 23 l-22 23 75 63 c45 38 72
67 68 74 -4 7 -33 45 -66 85 -39 47 -64 69 -71 63 -6 -4 -40 -31 -75 -60 l-65
-51 -23 22 c-13 12 -22 25 -21 29 4 9 261 219 269 219 4 0 15 -12 24 -27z
m5645 -313 c0 -4 -35 -41 -77 -83 l-78 -76 25 -26 24 -26 66 66 c36 36 70 65
76 65 6 0 18 -8 28 -18 16 -18 13 -22 -54 -82 -38 -34 -70 -68 -70 -74 0 -7
14 -25 30 -41 l30 -29 48 46 c77 76 114 108 122 108 4 0 14 -8 24 -18 15 -18
11 -24 -88 -120 -58 -56 -109 -102 -114 -102 -5 0 -61 56 -126 124 l-116 124
107 101 c101 96 107 100 125 85 10 -10 18 -20 18 -24z m-5238 -127 l26 -28
-34 -110 c-18 -60 -43 -143 -55 -182 -12 -40 -25 -73 -29 -73 -3 0 -16 11 -29
23 -18 20 -20 28 -11 52 12 32 -1 50 -94 128 -44 37 -50 40 -77 30 -26 -10
-33 -8 -57 12 -15 13 -25 25 -22 28 5 4 340 144 351 146 3 0 17 -11 31 -26z
m4888 -202 c0 -24 -6 -30 -38 -39 -51 -16 -110 -75 -118 -121 -10 -52 20 -102
72 -120 37 -13 46 -13 88 3 54 21 97 71 98 115 1 17 -2 34 -5 37 -3 4 -28 -9
-54 -29 l-48 -35 -17 22 c-16 22 -15 23 53 75 41 32 75 51 84 47 24 -9 55 -68
55 -104 0 -79 -72 -167 -161 -195 -65 -21 -84 -21 -136 2 -98 45 -134 163 -75
249 32 49 94 97 149 116 46 16 53 13 53 -23z m-4642 -14 l22 -23 -108 -136
-109 -137 -27 23 -28 22 108 137 c60 75 112 137 115 137 3 0 15 -10 27 -23z
m161 -116 c15 -11 52 -65 82 -120 30 -55 57 -101 61 -101 4 0 19 18 33 40 29
45 34 47 65 22 l22 -18 -91 -139 c-51 -77 -96 -141 -101 -143 -5 -2 -20 4 -34
13 l-25 17 45 67 45 68 -58 106 c-32 58 -60 106 -63 106 -3 0 -36 -49 -75
-109 -38 -61 -74 -110 -80 -110 -5 0 -20 8 -32 18 l-22 17 94 143 c52 78 97
142 101 142 3 0 18 -9 33 -19z m4149 -246 c83 -55 151 -103 152 -106 0 -4 -12
-15 -27 -24 -25 -16 -28 -16 -55 -1 -28 17 -29 17 -116 -31 -83 -47 -87 -51
-85 -81 3 -30 -24 -62 -53 -62 -7 0 -15 52 -23 143 -6 78 -14 162 -17 187 -5
41 -3 46 23 62 15 10 33 17 39 15 6 -1 79 -47 162 -102z m-370 -212 c35 -86
59 -159 55 -164 -4 -4 -19 -10 -33 -14 -23 -5 -27 0 -55 67 l-31 73 -113 8
c-62 5 -115 6 -118 3 -3 -3 15 -58 42 -122 26 -64 43 -120 39 -124 -5 -5 -20
-11 -34 -15 -24 -5 -27 0 -82 137 -31 79 -60 151 -64 161 -5 13 2 20 27 31 29
12 52 12 149 2 63 -7 117 -12 119 -10 2 2 -4 25 -13 51 -15 45 -15 49 1 60 37
28 47 16 111 -144z m-3183 123 c18 -13 16 -19 -38 -142 l-56 -129 22 -12 c12
-7 52 -24 90 -39 37 -14 67 -32 67 -39 0 -21 -11 -45 -21 -45 -24 0 -249 105
-245 114 2 6 33 77 68 158 65 151 74 163 113 134z m478 -175 c9 -9 70 -372 63
-379 -3 -2 -17 0 -32 5 -19 6 -31 20 -39 44 -11 32 -16 35 -105 62 l-94 27
-25 -24 c-23 -21 -30 -22 -58 -12 l-32 11 127 143 c119 134 129 143 157 137
16 -3 33 -9 38 -14z m2084 -15 c4 -8 24 -32 43 -53 126 -139 190 -212 190
-216 0 -3 -15 -10 -32 -16 -30 -11 -35 -10 -54 14 l-21 27 -102 -28 c-98 -26
-101 -28 -101 -55 0 -30 -23 -49 -60 -49 -15 0 -20 5 -17 14 3 7 8 35 12 62
10 71 44 266 51 286 8 27 77 38 91 14z m-1674 -133 c54 -41 100 -73 102 -71 2
2 7 23 12 48 8 43 10 45 43 45 19 0 35 -4 35 -10 0 -5 -13 -83 -30 -173 l-30
-164 -29 6 c-16 4 -31 8 -34 10 -2 2 2 38 9 80 13 75 12 77 -10 92 -12 9 -56
42 -96 75 -41 33 -75 58 -75 57 0 -10 -51 -263 -54 -265 -1 -2 -17 0 -35 3
-23 5 -30 11 -27 23 3 9 7 36 11 61 10 72 45 252 50 260 12 19 68 -8 158 -77z
m1368 -78 c10 -77 20 -154 24 -171 5 -30 4 -32 -30 -36 -42 -5 -40 -8 -55 132
-6 58 -13 106 -15 108 -2 2 -27 -26 -55 -62 -29 -36 -54 -66 -57 -66 -2 0 -33
20 -67 45 -35 25 -65 45 -68 45 -2 0 2 -52 11 -115 8 -63 12 -117 9 -120 -3
-3 -18 -7 -34 -8 l-29 -2 -24 168 c-13 93 -22 170 -20 171 2 2 18 7 35 10 27
6 40 0 103 -50 40 -31 76 -52 80 -48 4 5 27 35 51 68 45 59 70 77 104 73 18
-2 22 -17 37 -142z m-851 74 c58 -12 111 -53 130 -99 18 -45 8 -129 -20 -168
-40 -54 -80 -67 -210 -67 l-114 0 2 45 c1 25 4 102 8 173 l6 127 74 0 c40 0
96 -5 124 -11z"/>
<path d="M6268 10504 c-10 -9 -10 -130 -1 -378 l6 -189 131 6 c166 7 224 24
288 88 102 101 105 292 7 390 -67 67 -112 81 -279 86 -80 3 -148 2 -152 -3z"/>
<path d="M3333 9088 c2 -7 34 -84 71 -170 36 -86 66 -161 66 -166 0 -4 6 -16
13 -26 12 -17 24 -7 135 114 67 73 121 134 119 136 -5 5 -385 124 -397 124 -7
0 -10 -6 -7 -12z"/>
<path d="M6272 8153 c-27 -4 -31 -8 -28 -26 3 -12 7 -65 11 -117 3 -52 8 -111
12 -131 l5 -37 129 0 c71 0 146 -3 167 -7 l39 -6 22 151 c12 84 20 154 18 156
-16 16 -284 28 -375 17z"/>
<path d="M6038 8120 c-81 -17 -182 -46 -250 -72 l-27 -10 16 -42 c74 -198 97
-246 112 -241 107 33 196 57 245 65 32 5 61 11 63 14 3 2 -6 72 -18 155 -18
123 -25 151 -38 150 -9 0 -55 -9 -103 -19z"/>
<path d="M6707 7974 c-15 -81 -26 -148 -24 -150 2 -2 51 -18 110 -34 58 -17
127 -40 153 -51 25 -12 50 -17 54 -12 4 4 35 68 68 141 l60 132 -47 21 c-46
20 -191 68 -266 88 -82 22 -77 27 -108 -135z"/>
<path d="M5585 7957 c-73 -38 -255 -155 -255 -163 0 -3 173 -229 185 -243 2
-2 43 23 92 55 48 33 112 70 141 83 31 15 52 31 52 40 -1 23 -113 264 -125
267 -6 2 -46 -16 -90 -39z"/>
<path d="M7137 7831 c-37 -71 -67 -133 -67 -139 0 -6 24 -23 53 -40 28 -16 90
-58 136 -92 l85 -63 25 30 c15 17 59 69 99 116 41 48 71 91 68 96 -17 27 -302
221 -326 221 -4 0 -37 -58 -73 -129z"/>
<path d="M6235 7744 c-11 -3 -59 -12 -108 -21 -48 -8 -89 -19 -92 -22 -4 -7
18 -87 64 -236 12 -41 23 -59 32 -57 45 12 202 32 247 32 l52 0 0 124 c0 68 3
138 6 155 l7 31 -94 -1 c-52 -1 -103 -3 -114 -5z"/>
<path d="M6525 7737 c-8 -27 -27 -286 -21 -295 3 -5 33 -13 67 -16 34 -4 100
-20 146 -36 l85 -28 23 51 c39 89 95 224 95 230 0 11 -137 57 -225 76 -136 28
-166 32 -170 18z"/>
<path d="M5181 7665 c-83 -79 -191 -205 -191 -222 0 -5 55 -49 122 -98 l121
-89 40 50 c23 27 74 82 114 123 64 63 72 75 61 89 -10 12 -158 191 -184 220
-1 2 -39 -31 -83 -73z"/>
<path d="M5900 7658 c-130 -56 -313 -165 -306 -184 2 -5 43 -63 91 -127 l88
-116 42 29 c56 39 192 110 210 110 22 0 26 16 12 51 -8 19 -31 82 -52 142 -20
59 -42 107 -49 106 -6 0 -22 -5 -36 -11z"/>
<path d="M7550 7613 c-30 -32 -77 -81 -104 -110 l-49 -52 58 -63 c31 -35 79
-93 107 -130 l50 -67 56 36 c176 112 203 133 192 153 -30 56 -232 290 -250
290 -3 0 -30 -26 -60 -57z"/>
<path d="M6937 7475 c-38 -75 -66 -139 -63 -144 3 -4 35 -25 70 -46 36 -21 91
-60 123 -87 l57 -48 108 112 107 113 -47 43 c-60 54 -265 192 -285 192 -2 0
-33 -61 -70 -135z"/>
<path d="M5434 7347 c-66 -69 -132 -151 -168 -208 l-17 -26 133 -83 132 -83
16 24 c34 51 140 178 165 195 l26 20 -98 116 c-54 64 -103 117 -109 117 -6 1
-42 -32 -80 -72z"/>
<path d="M4888 7297 c-37 -62 -120 -233 -132 -273 -6 -20 1 -25 71 -49 43 -16
105 -39 137 -52 33 -12 63 -23 67 -23 5 0 33 52 63 115 30 63 64 128 75 144
12 16 21 32 21 35 0 9 -239 166 -253 166 -7 0 -29 -28 -49 -63z"/>
<path d="M6304 7340 c-100 -11 -115 -17 -109 -43 2 -12 16 -71 30 -130 14 -60
25 -116 25 -125 0 -15 17 -17 150 -17 125 0 151 3 154 15 3 8 16 67 31 130 14
63 28 123 31 132 4 13 -6 18 -48 26 -80 16 -184 20 -264 12z"/>
<path d="M7349 7264 c-30 -26 -74 -66 -97 -88 -24 -23 -50 -45 -58 -49 -23
-13 -16 -33 35 -100 26 -35 63 -92 82 -126 18 -33 37 -60 40 -59 67 25 269
126 269 134 0 31 -119 220 -189 302 l-29 33 -53 -47z"/>
<path d="M6002 7255 c-83 -39 -204 -120 -245 -163 l-27 -28 109 -108 108 -108
64 49 c35 26 92 61 126 77 l61 29 -48 141 c-28 85 -52 142 -61 144 -8 1 -47
-13 -87 -33z"/>
<path d="M6705 7278 c-43 -122 -95 -273 -95 -275 0 -2 31 -18 69 -38 39 -19
94 -55 124 -79 l54 -44 109 109 108 109 -29 30 c-38 40 -155 120 -230 157 -81
41 -104 47 -110 31z"/>
<path d="M7895 7276 c-11 -8 -70 -42 -130 -77 -61 -34 -111 -63 -113 -64 -1
-1 22 -53 52 -116 30 -63 58 -130 63 -149 9 -32 13 -35 44 -33 30 2 256 66
265 76 8 8 -41 138 -96 255 -32 67 -60 122 -62 122 -2 0 -13 -6 -23 -14z"/>
<path d="M5182 6988 c-41 -84 -72 -169 -91 -250 -11 -46 -18 -84 -16 -86 3 -3
162 -35 268 -54 17 -3 30 -1 32 6 21 75 71 219 86 248 l19 37 -88 47 c-48 26
-106 58 -130 71 -23 12 -46 23 -51 23 -4 0 -17 -19 -29 -42z"/>
<path d="M5649 6973 c-51 -62 -119 -193 -148 -286 -23 -74 -21 -87 10 -87 11
0 64 -11 117 -24 152 -38 153 -38 167 9 15 51 60 141 92 183 24 32 25 34 7 47
-11 7 -63 49 -117 94 -54 44 -102 81 -106 81 -4 0 -14 -8 -22 -17z"/>
<path d="M7031 6905 c-145 -116 -138 -107 -112 -143 32 -46 91 -174 91 -199 0
-17 6 -23 23 -23 29 0 275 55 283 63 21 20 -93 282 -154 354 l-27 32 -104 -84z"/>
<path d="M6240 6931 c-70 -22 -140 -58 -140 -72 0 -5 37 -65 83 -133 l82 -122
40 18 c23 10 64 18 97 18 l57 0 15 53 c53 194 61 238 46 247 -27 17 -219 11
-280 -9z"/>
<path d="M4701 6853 c-21 -72 -51 -250 -51 -301 0 -37 5 -38 180 -48 l126 -6
13 93 c11 85 33 186 47 222 4 11 -21 23 -98 46 -57 18 -123 39 -147 47 -25 8
-46 14 -47 14 -2 0 -12 -30 -23 -67z"/>
<path d="M6575 6766 c-66 -137 -73 -156 -55 -156 20 0 77 -60 95 -100 10 -22
23 -39 29 -37 6 2 70 21 141 42 72 21 134 42 139 46 6 5 -7 41 -29 86 -43 87
-138 191 -213 231 l-43 24 -64 -136z"/>
<path d="M7515 6833 c-77 -31 -141 -56 -142 -57 0 -1 9 -32 22 -71 12 -38 26
-95 29 -125 4 -30 10 -68 13 -84 l5 -28 102 6 c55 4 125 9 154 13 l54 6 -7 60
c-13 112 -73 342 -88 336 -1 0 -65 -26 -142 -56z"/>
<path d="M7947 6791 c-76 -20 -139 -39 -139 -44 0 -4 6 -40 13 -80 6 -39 15
-110 18 -157 l6 -85 158 -3 157 -3 0 28 c0 102 -47 384 -64 382 -6 -1 -73 -18
-149 -38z"/>
<path d="M5956 6731 c-64 -87 -98 -179 -104 -278 l-4 -82 93 5 c52 3 122 7
157 10 l62 6 0 32 c0 18 14 61 31 95 l31 62 -103 105 c-57 57 -107 104 -111
104 -5 0 -28 -27 -52 -59z"/>
<path d="M5057 6554 c-17 -17 -3 -382 15 -399 4 -4 298 51 303 56 1 2 -1 29
-6 59 -5 30 -9 99 -7 152 1 54 0 100 -3 102 -2 2 -51 9 -109 16 -58 6 -123 13
-145 16 -22 3 -43 2 -48 -2z"/>
<path d="M5458 6455 c-7 -79 5 -200 27 -291 10 -38 19 -71 21 -73 4 -4 275 89
286 98 4 3 0 35 -7 71 -8 36 -14 100 -15 142 l0 77 -42 5 c-24 3 -83 10 -133
16 -49 6 -100 13 -111 15 -20 4 -22 -1 -26 -60z"/>
<path d="M7300 6503 c-14 -2 -79 -9 -145 -16 l-120 -12 -6 -95 c-7 -106 -21
-172 -46 -224 -9 -20 -15 -38 -12 -40 2 -3 65 -34 139 -70 l135 -66 13 26 c39
73 69 191 82 311 8 80 3 194 -9 192 -3 -1 -17 -4 -31 -6z"/>
<path d="M6770 6436 l-125 -11 -6 -50 c-6 -51 -29 -106 -57 -137 -18 -21 -25
-10 107 -156 l84 -93 31 30 c82 80 145 233 146 354 l0 77 -27 -2 c-16 0 -84
-6 -153 -12z"/>
<path d="M4644 6321 c6 -105 31 -280 42 -290 2 -3 33 1 67 9 34 7 97 20 139
29 42 9 80 20 84 23 3 4 1 51 -5 105 -6 54 -12 127 -14 163 l-2 65 -159 3
-159 3 7 -110z"/>
<path d="M7440 6363 c0 -32 -19 -166 -36 -253 -5 -24 -1 -26 133 -68 76 -23
143 -42 149 -42 17 0 55 191 61 303 l6 97 -157 0 -156 0 0 -37z"/>
<path d="M7837 6269 c-3 -46 -13 -121 -23 -167 -9 -46 -15 -84 -13 -86 2 -2
68 -22 147 -44 l143 -40 11 27 c12 30 43 216 52 314 l7 67 -84 0 c-46 0 -118
3 -159 6 l-75 7 -6 -84z"/>
<path d="M6005 6302 c-161 -43 -155 -32 -98 -152 38 -78 134 -186 199 -222
l32 -18 72 135 72 136 -45 42 c-24 23 -50 59 -58 80 -7 20 -18 37 -24 36 -5 0
-73 -17 -150 -37z"/>
<path d="M6485 6174 c-18 -8 -57 -13 -95 -12 l-65 2 -12 -45 c-6 -24 -25 -89
-42 -143 -22 -71 -28 -103 -21 -110 7 -7 64 -11 148 -11 118 0 145 3 193 23
104 42 103 31 14 181 -43 72 -81 131 -84 130 -3 0 -19 -7 -36 -15z"/>
<path d="M5230 6103 c-74 -20 -136 -37 -138 -38 -17 -15 125 -349 157 -369 6
-4 233 132 254 153 6 6 -2 30 -22 65 -18 31 -45 93 -61 138 -16 46 -35 84 -42
85 -7 1 -74 -15 -148 -34z"/>
<path d="M5690 6069 c-69 -32 -129 -60 -134 -62 -14 -5 2 -42 56 -124 54 -82
173 -213 194 -213 7 0 47 44 90 98 43 53 84 105 92 114 13 16 9 23 -42 79 -32
34 -71 86 -88 115 -16 30 -33 54 -36 53 -4 0 -63 -27 -132 -60z"/>
<path d="M6893 6005 c-24 -30 -70 -76 -103 -102 -59 -46 -60 -47 -44 -71 9
-13 43 -68 75 -123 33 -54 65 -101 70 -105 13 -8 78 37 152 106 69 63 161 180
150 190 -13 11 -250 160 -254 160 -2 0 -23 -25 -46 -55z"/>
<path d="M4900 5994 c-47 -13 -107 -29 -133 -35 -27 -6 -51 -17 -54 -25 -7
-19 41 -162 93 -272 24 -53 46 -97 48 -99 3 -3 206 104 253 133 l22 14 -39 82
c-21 46 -49 116 -61 156 -13 39 -28 72 -33 71 -6 0 -49 -11 -96 -25z"/>
<path d="M7341 5955 c-18 -36 -53 -96 -77 -132 -25 -37 -43 -70 -42 -74 2 -4
54 -49 117 -99 128 -103 118 -102 183 -7 38 56 138 244 138 260 0 4 -10 12
-22 17 -68 27 -235 92 -249 97 -11 3 -24 -14 -48 -62z"/>
<path d="M7750 5883 c-12 -32 -44 -99 -70 -150 l-46 -92 130 -82 c123 -77 130
-80 144 -63 31 43 133 259 152 326 l8 27 -136 45 c-76 26 -142 46 -148 46 -6
0 -21 -26 -34 -57z"/>
<path d="M6017 5808 c-19 -29 -55 -86 -82 -127 -55 -84 -61 -73 70 -136 78
-37 278 -96 289 -84 2 2 9 58 15 124 6 66 14 134 17 151 l6 32 -72 16 c-40 9
-98 30 -131 46 -32 17 -63 30 -68 30 -6 0 -26 -24 -44 -52z"/>
<path d="M6638 5815 c-34 -19 -157 -45 -209 -45 l-39 0 0 -160 0 -159 68 5
c90 8 235 41 299 70 l52 23 -66 140 c-37 78 -69 141 -73 141 -3 -1 -17 -7 -32
-15z"/>
<path d="M5426 5705 c-66 -47 -121 -87 -123 -89 -14 -14 214 -256 270 -288 9
-5 43 32 106 117 l93 125 -34 27 c-46 38 -107 100 -148 151 -19 23 -37 42 -40
42 -3 0 -59 -38 -124 -85z"/>
<path d="M7110 5640 c-30 -28 -83 -70 -117 -93 -34 -23 -63 -46 -63 -51 0 -8
38 -74 132 -233 l19 -32 57 36 c69 43 173 127 225 181 l38 39 -111 102 c-62
55 -115 101 -118 101 -4 0 -32 -23 -62 -50z"/>
<path d="M5032 5567 l-133 -79 21 -35 c48 -82 211 -283 230 -283 4 0 56 47
115 104 l108 104 -50 59 c-28 32 -75 92 -105 134 l-54 76 -132 -80z"/>
<path d="M7522 5492 c-39 -48 -88 -105 -111 -126 l-40 -39 72 -80 c40 -43 86
-96 104 -116 l32 -36 61 60 c85 83 203 233 197 249 -4 10 -178 137 -233 169
-7 4 -40 -29 -82 -81z"/>
<path d="M5749 5409 c-44 -66 -82 -126 -85 -133 -8 -20 192 -122 316 -162 25
-7 46 -14 47 -14 1 0 13 39 27 88 15 48 33 110 41 138 8 28 15 55 15 61 0 6
-33 23 -72 37 -40 15 -103 45 -141 66 l-67 39 -81 -120z"/>
<path d="M6785 5434 c-55 -22 -131 -45 -196 -58 l-26 -6 19 -117 c10 -65 21
-133 24 -150 4 -26 10 -33 27 -33 25 0 139 26 177 39 103 38 190 75 190 81 0
19 -134 270 -144 269 -6 0 -38 -12 -71 -25z"/>
<path d="M6177 5363 c-21 -70 -57 -277 -50 -283 15 -15 152 -30 272 -30 l121
0 0 28 c0 15 -5 84 -12 153 l-11 126 -131 7 c-72 3 -143 9 -158 12 -20 5 -27
2 -31 -13z"/>
<path d="M5321 5221 c-56 -60 -101 -113 -101 -117 0 -22 292 -234 321 -234 7
0 29 36 85 135 15 28 36 64 46 80 10 17 18 35 18 42 0 7 -30 32 -67 56 -38 24
-93 64 -123 88 -30 25 -60 48 -66 52 -7 4 -52 -37 -113 -102z"/>
<path d="M7245 5229 c-38 -28 -102 -69 -142 -91 l-72 -39 69 -140 70 -139 53
26 c53 27 223 138 266 174 16 14 20 24 14 33 -24 31 -185 227 -186 226 -1 0
-33 -23 -72 -50z"/>
<path d="M5695 4970 c-37 -73 -64 -138 -62 -144 6 -16 137 -71 256 -107 113
-35 119 -35 126 -6 28 126 56 245 61 258 4 13 -10 21 -68 38 -58 18 -153 53
-240 89 -4 2 -37 -56 -73 -128z"/>
<path d="M6930 5056 c-30 -17 -235 -76 -261 -76 -11 0 -19 -7 -19 -17 0 -34
43 -278 50 -286 10 -11 97 7 215 43 90 28 175 60 175 65 0 13 -120 280 -127
282 -4 1 -19 -4 -33 -11z"/>
<path d="M6145 4966 c-1 -6 -13 -75 -27 -153 l-24 -142 21 -5 c56 -15 290 -28
389 -21 l108 7 -6 52 c-3 28 -11 97 -17 153 l-12 102 -161 0 c-89 0 -185 5
-214 9 -38 7 -55 6 -57 -2z"/>
<path d="M10161 8001 c-69 -32 -126 -62 -128 -68 -5 -15 105 -263 134 -301 41
-55 80 -74 140 -69 95 7 152 77 138 170 -10 64 -127 327 -145 326 -8 -1 -71
-27 -139 -58z"/>
<path d="M2714 5096 c-46 -21 -64 -52 -64 -113 0 -47 4 -58 34 -91 31 -34 39
-37 86 -37 46 0 55 4 81 33 23 26 29 42 29 78 0 104 -81 168 -166 130z"/>
<path d="M3793 3382 c-35 -14 -63 -28 -63 -31 0 -4 22 -28 49 -55 l49 -48 22
69 c12 37 23 74 25 81 6 17 -10 14 -82 -16z"/>
<path d="M8334 2893 c3 -10 6 -40 7 -68 4 -78 4 -78 70 -42 32 17 59 35 59 38
0 8 -123 89 -134 89 -4 0 -5 -8 -2 -17z"/>
<path d="M5301 2501 c-28 -33 -48 -62 -44 -64 13 -8 125 -38 128 -35 5 7 -18
158 -25 158 -4 0 -30 -27 -59 -59z"/>
<path d="M7450 2482 c-17 -103 -17 -104 58 -81 34 11 62 23 62 27 -1 4 -25 33
-54 66 l-54 59 -12 -71z"/>
<path d="M6206 2384 c-3 -26 -6 -78 -6 -115 l0 -69 63 0 c81 0 122 23 137 79
6 22 8 51 4 65 -12 51 -77 85 -160 86 -30 0 -32 -2 -38 -46z"/>
</g>
</svg>
