<svg width="60" height="60" viewBox="0 0 60 60" fill="none" xmlns="http://www.w3.org/2000/svg">
<path d="M44.9996 19.775C44.9246 19.775 44.8746 19.775 44.7996 19.775H44.6746C39.9496 19.625 36.4246 15.975 36.4246 11.475C36.4246 6.87503 40.1746 3.15002 44.7496 3.15002C49.3246 3.15002 53.0746 6.90003 53.0746 11.475C53.0496 16 49.5246 19.65 45.0246 19.8C45.0246 19.775 45.0246 19.775 44.9996 19.775ZM44.7496 6.87504C42.2246 6.87504 40.1746 8.92504 40.1746 11.45C40.1746 13.925 42.0996 15.925 44.5746 16.025C44.5996 16 44.7996 16 45.0246 16.025C47.4496 15.9 49.3246 13.9 49.3496 11.45C49.3496 8.92504 47.2996 6.87504 44.7496 6.87504Z" fill="#D9DAE1"/>
<path d="M45.025 38.2001C44.05 38.2001 43.075 38.1251 42.1 37.9501C41.075 37.7751 40.4 36.8001 40.575 35.7751C40.75 34.7501 41.725 34.0751 42.75 34.2501C45.825 34.7751 49.075 34.2001 51.25 32.7501C52.425 31.9751 53.05 31.0001 53.05 30.0251C53.05 29.0501 52.4 28.1001 51.25 27.3251C49.075 25.8751 45.775 25.3001 42.675 25.8501C41.65 26.0501 40.675 25.3501 40.5 24.3251C40.325 23.3001 41 22.3251 42.025 22.1501C46.1 21.4251 50.325 22.2001 53.325 24.2001C55.525 25.6751 56.8 27.7751 56.8 30.0251C56.8 32.2501 55.55 34.3751 53.325 35.8751C51.05 37.3751 48.1 38.2001 45.025 38.2001Z" fill="#D9DAE1"/>
<path d="M14.925 19.775C14.9 19.775 14.875 19.775 14.875 19.775C10.375 19.625 6.84995 15.975 6.82495 11.475C6.82495 6.87499 10.575 3.125 15.15 3.125C19.725 3.125 23.475 6.875 23.475 11.45C23.475 15.975 19.95 19.625 15.45 19.775L14.925 17.9L15.1 19.775C15.05 19.775 14.975 19.775 14.925 19.775ZM15.175 16.025C15.325 16.025 15.45 16.025 15.6 16.05C17.825 15.95 19.775 13.95 19.775 11.475C19.775 8.94999 17.725 6.89999 15.2 6.89999C12.675 6.89999 10.625 8.94999 10.625 11.475C10.625 13.925 12.525 15.9 14.95 16.05C14.975 16.025 15.075 16.025 15.175 16.025Z" fill="#D9DAE1"/>
<path d="M14.9 38.2001C11.825 38.2001 8.875 37.3751 6.6 35.8751C4.4 34.4001 3.125 32.2751 3.125 30.0251C3.125 27.8001 4.4 25.6751 6.6 24.2001C9.6 22.2001 13.825 21.4251 17.9 22.1501C18.925 22.3251 19.6 23.3001 19.425 24.3251C19.25 25.3501 18.275 26.0501 17.25 25.8501C14.15 25.3001 10.875 25.8751 8.675 27.3251C7.5 28.1001 6.875 29.0501 6.875 30.0251C6.875 31.0001 7.525 31.9751 8.675 32.7501C10.85 34.2001 14.1 34.7751 17.175 34.2501C18.2 34.0751 19.175 34.7751 19.35 35.7751C19.525 36.8001 18.85 37.7751 17.825 37.9501C16.85 38.1251 15.875 38.2001 14.9 38.2001Z" fill="#D9DAE1"/>
<path d="M29.9996 38.45C29.9246 38.45 29.8746 38.45 29.7996 38.45H29.6746C24.9496 38.3 21.4246 34.65 21.4246 30.15C21.4246 25.55 25.1746 21.825 29.7496 21.825C34.3246 21.825 38.0746 25.575 38.0746 30.15C38.0496 34.675 34.5246 38.325 30.0246 38.475C30.0246 38.45 30.0246 38.45 29.9996 38.45ZM29.7496 25.55C27.2246 25.55 25.1746 27.6 25.1746 30.125C25.1746 32.6 27.0996 34.6 29.5746 34.7C29.5996 34.675 29.7996 34.675 30.0246 34.7C32.4496 34.575 34.3246 32.575 34.3496 30.125C34.3496 27.625 32.2996 25.55 29.7496 25.55Z" fill="#D9DAE1"/>
<path d="M29.9995 56.8999C26.9995 56.8999 23.9995 56.125 21.6745 54.55C19.4745 53.075 18.1995 50.975 18.1995 48.725C18.1995 46.5 19.4495 44.3499 21.6745 42.8749C26.3495 39.7749 33.6745 39.7749 38.3245 42.8749C40.5245 44.3499 41.7995 46.4499 41.7995 48.6999C41.7995 50.9249 40.5495 53.075 38.3245 54.55C35.9995 56.1 32.9995 56.8999 29.9995 56.8999ZM23.7495 46.025C22.5745 46.8 21.9495 47.7749 21.9495 48.7499C21.9495 49.7249 22.5995 50.6749 23.7495 51.4499C27.1245 53.7249 32.8495 53.7249 36.2245 51.4499C37.3995 50.6749 38.0245 49.7 38.0245 48.725C38.0245 47.75 37.3745 46.8 36.2245 46.025C32.8745 43.75 27.1495 43.775 23.7495 46.025Z" fill="#D9DAE1"/>
</svg>
