<svg width="60" height="60" viewBox="0 0 60 60" fill="none" xmlns="http://www.w3.org/2000/svg">
<path d="M30 31.875C22.075 31.875 15.625 25.425 15.625 17.5C15.625 9.575 22.075 3.125 30 3.125C37.925 3.125 44.375 9.575 44.375 17.5C44.375 25.425 37.925 31.875 30 31.875ZM30 6.875C24.15 6.875 19.375 11.65 19.375 17.5C19.375 23.35 24.15 28.125 30 28.125C35.85 28.125 40.625 23.35 40.625 17.5C40.625 11.65 35.85 6.875 30 6.875Z" fill="#333333"/>
<path d="M8.52539 56.875C7.50039 56.875 6.65039 56.025 6.65039 55C6.65039 44.325 17.1254 35.625 30.0004 35.625C32.5254 35.625 35.0004 35.9501 37.4004 36.6251C38.4004 36.9001 38.9754 37.925 38.7004 38.925C38.4254 39.925 37.4004 40.5001 36.4004 40.2251C34.3504 39.6501 32.2004 39.375 30.0004 39.375C19.2004 39.375 10.4004 46.375 10.4004 55C10.4004 56.025 9.55039 56.875 8.52539 56.875Z" fill="#333333"/>
<path d="M45 56.875C40.85 56.875 36.95 54.675 34.85 51.1C33.725 49.3 33.125 47.175 33.125 45C33.125 41.35 34.75 37.9749 37.575 35.7249C39.675 34.0499 42.325 33.125 45 33.125C51.55 33.125 56.875 38.45 56.875 45C56.875 47.175 56.275 49.3 55.15 51.125C54.525 52.175 53.725 53.125 52.775 53.925C50.7 55.825 47.925 56.875 45 56.875ZM45 36.875C43.15 36.875 41.4 37.4999 39.925 38.6749C38 40.1999 36.875 42.525 36.875 45C36.875 46.475 37.275 47.925 38.05 49.175C39.5 51.625 42.175 53.125 45 53.125C46.975 53.125 48.875 52.4 50.325 51.1C50.975 50.55 51.525 49.9 51.925 49.2C52.725 47.925 53.125 46.475 53.125 45C53.125 40.525 49.475 36.875 45 36.875Z" fill="#333333"/>
<path d="M43.5747 49.3501C43.0997 49.3501 42.6247 49.1752 42.2497 48.8002L39.7747 46.3252C39.0497 45.6002 39.0497 44.4001 39.7747 43.6751C40.4997 42.9501 41.6997 42.9501 42.4247 43.6751L43.6247 44.8752L47.6247 41.1751C48.3747 40.4751 49.5747 40.5252 50.2747 41.2752C50.9747 42.0252 50.9247 43.2252 50.1747 43.9252L44.8497 48.8501C44.4747 49.1751 44.0247 49.3501 43.5747 49.3501Z" fill="#333333"/>
</svg>
