<svg width="56" height="57" viewBox="0 0 56 57" fill="none" xmlns="http://www.w3.org/2000/svg">
<rect x="4" y="4.5" width="48" height="48" rx="24" fill="#F4EBFF"/>
<rect x="4" y="4.5" width="48" height="48" rx="24" stroke="#F9F5FF" stroke-width="8"/>
<path opacity="0.3" d="M37.5859 34.5249L29.3859 37.8249C28.6859 38.1249 27.9859 38.1249 27.2859 37.8249L19.0859 34.5249C18.0859 34.1249 18.0859 32.7249 19.0859 32.3249L20.3859 31.8249L26.5859 34.3249C27.1859 34.5249 27.7859 34.6249 28.3859 34.6249C28.9859 34.6249 29.5859 34.5249 30.1859 34.3249L36.3859 31.8249L37.6859 32.3249C38.6859 32.7249 38.6859 34.1249 37.5859 34.5249ZM29.3859 32.4249L37.5859 29.1249C38.5859 28.7249 38.5859 27.3249 37.5859 26.9249L29.3859 23.6249C28.6859 23.3249 27.9859 23.3249 27.2859 23.6249L19.0859 26.9249C18.0859 27.3249 18.0859 28.7249 19.0859 29.1249L27.2859 32.4249C27.9859 32.7249 28.7859 32.7249 29.3859 32.4249Z" fill="#6E62E5"/>
<path d="M27.3858 27.025L19.1858 23.725C18.1858 23.325 18.1858 21.925 19.1858 21.525L27.3858 18.225C28.0858 17.925 28.7858 17.925 29.4858 18.225L37.6858 21.525C38.6858 21.925 38.6858 23.325 37.6858 23.725L29.3858 27.025C28.7858 27.325 27.9858 27.325 27.3858 27.025Z" fill="#6E62E5"/>
</svg>
