<svg width="16" height="22" viewBox="0 0 16 22" fill="none" xmlns="http://www.w3.org/2000/svg">
<path d="M0.333313 2.83333V4C0.333313 4.64433 0.855653 5.16667 1.49998 5.16667C2.14431 5.16667 2.66665 4.64433 2.66665 4C2.66665 3.35567 3.18896 2.83333 3.83331 2.83333H12C12.6443 2.83333 13.1666 3.35567 13.1666 4V18C13.1666 18.6444 12.6443 19.1667 12 19.1667H3.83331C3.18896 19.1667 2.66665 18.6444 2.66665 18C2.66665 17.3556 2.14431 16.8333 1.49998 16.8333C0.855653 16.8333 0.333313 17.3556 0.333313 18V19.1667C0.333313 20.4554 1.37798 21.5 2.66665 21.5H13.1666C14.4553 21.5 15.5 20.4554 15.5 19.1667V2.83333C15.5 1.54467 14.4553 0.5 13.1666 0.5H2.66665C1.37798 0.5 0.333313 1.54467 0.333313 2.83333Z" fill="#7E8299"/>
</svg>
