<?xml version="1.0" standalone="no"?>
<!DOCTYPE svg PUBLIC "-//W3C//DTD SVG 20010904//EN"
 "http://www.w3.org/TR/2001/REC-SVG-20010904/DTD/svg10.dtd">
<svg version="1.0" xmlns="http://www.w3.org/2000/svg"
 width="1280.000000pt" height="1280.000000pt" viewBox="0 0 1280.000000 1280.000000"
 preserveAspectRatio="xMidYMid meet">

<g transform="translate(0.000000,1280.000000) scale(0.100000,-0.100000)"
fill="#000000" stroke="none">
<path d="M6083 10508 c4 -84 7 -281 7 -437 l0 -284 233 6 c166 3 248 9 288 20
144 40 251 121 305 232 28 57 29 66 29 190 0 124 -1 133 -29 187 -60 118 -164
191 -318 222 -57 12 -136 16 -299 16 l-222 0 6 -152z m529 -26 c68 -30 124
-90 142 -153 35 -115 11 -225 -62 -298 -63 -63 -121 -80 -288 -88 l-131 -6 -6
183 c-9 240 -9 375 1 384 4 5 72 6 152 3 117 -4 154 -9 192 -25z"/>
<path d="M4993 10445 l-73 -34 46 -98 c57 -121 69 -151 64 -157 -3 -2 -139 2
-302 10 l-296 14 -78 -35 c-43 -20 -79 -37 -81 -38 -3 -3 99 -226 211 -462 32
-66 78 -165 104 -220 25 -55 47 -102 49 -104 2 -3 39 12 82 33 l78 39 -77 166
c-43 91 -107 229 -144 305 -36 77 -65 141 -63 143 5 5 594 -24 603 -30 5 -3
45 -82 89 -176 44 -94 85 -171 91 -171 24 0 144 62 144 75 0 11 -50 119 -315
683 -24 50 -47 92 -52 91 -4 0 -41 -16 -80 -34z"/>
<path d="M7760 10298 c0 -101 3 -314 7 -474 l6 -291 77 -35 77 -35 60 56 c33
31 125 117 204 192 79 74 208 195 287 268 78 74 141 135 139 137 -1 2 -36 17
-77 34 -41 17 -81 34 -88 37 -8 3 -108 -88 -260 -241 -136 -135 -251 -246
-256 -246 -5 0 -5 157 -1 353 l7 353 -44 18 c-23 10 -62 26 -86 37 -23 10 -45
19 -47 19 -3 0 -5 -82 -5 -182z"/>
<path d="M9244 9527 c-43 -45 -177 -185 -296 -309 -120 -125 -218 -231 -217
-235 1 -8 356 -349 475 -457 l65 -59 50 49 c27 26 49 51 49 55 0 4 -53 58
-117 121 -65 62 -157 151 -205 198 l-87 85 83 87 84 87 172 -167 c95 -92 178
-168 185 -170 12 -3 95 81 95 96 0 5 -35 42 -77 82 -43 41 -122 116 -176 168
l-97 93 46 54 c26 30 54 57 62 60 16 6 23 0 192 -161 52 -50 124 -118 160
-152 l65 -61 53 52 c28 28 51 54 50 58 -2 3 -68 68 -148 144 -80 76 -197 189
-261 252 -64 62 -118 113 -121 113 -3 0 -40 -37 -84 -83z"/>
<path d="M3186 9225 c-53 -60 -57 -68 -48 -93 6 -15 48 -119 94 -232 47 -113
122 -297 168 -410 46 -113 85 -207 87 -209 6 -7 112 101 118 120 3 10 -6 46
-20 80 -14 34 -25 67 -25 72 0 5 66 81 148 169 81 88 156 172 168 186 l20 25
77 -26 77 -26 52 56 c64 66 74 82 56 88 -7 2 -112 34 -233 71 -121 36 -316 94
-433 130 -117 35 -221 64 -231 64 -10 0 -43 -29 -75 -65z m356 -185 c105 -33
193 -62 195 -64 2 -2 -52 -63 -119 -136 -111 -121 -123 -131 -135 -114 -7 10
-13 22 -13 26 0 5 -30 80 -66 166 -37 86 -69 163 -71 170 -3 6 0 12 6 12 6 0
97 -27 203 -60z"/>
<path d="M6230 8894 c-294 -27 -522 -81 -800 -190 -25 -10 -101 -47 -170 -82
-728 -375 -1223 -1074 -1337 -1886 -23 -165 -23 -507 0 -672 88 -624 401
-1187 887 -1590 351 -292 794 -486 1254 -551 165 -23 507 -23 672 0 716 100
1354 502 1748 1100 209 318 340 667 393 1041 23 165 23 507 0 672 -132 940
-772 1717 -1672 2030 -112 39 -338 92 -464 109 -114 16 -423 27 -511 19z m388
-750 l33 -7 -6 -51 c-4 -28 -14 -96 -23 -150 l-17 -100 -165 3 c-91 1 -166 4
-168 6 -3 3 -16 132 -25 252 -4 52 -4 52 27 57 41 6 302 -2 344 -10z m-439
-155 c12 -83 20 -153 18 -155 -2 -3 -31 -9 -63 -14 -33 -5 -98 -21 -144 -36
-47 -14 -92 -28 -101 -31 -17 -5 -30 25 -104 224 l-23 61 26 10 c95 36 299 89
353 91 12 1 20 -28 38 -150z m671 111 c87 -24 174 -54 235 -81 l43 -19 -63
-137 c-35 -76 -68 -139 -73 -141 -6 -2 -29 6 -50 17 -22 11 -89 34 -148 51
-59 16 -109 32 -111 34 -2 2 9 69 24 150 32 168 21 159 143 126z m-1107 -233
c31 -72 57 -137 57 -143 0 -6 -24 -21 -52 -35 -29 -13 -93 -50 -141 -82 -49
-32 -90 -57 -92 -55 -14 15 -185 240 -185 243 0 16 317 204 345 205 6 0 36
-60 68 -133z m1556 43 c84 -51 226 -154 237 -171 3 -5 -27 -48 -68 -96 -40
-47 -84 -99 -99 -116 l-25 -30 -81 61 c-45 33 -107 74 -137 92 -31 17 -56 36
-56 42 0 14 133 268 140 268 4 0 44 -23 89 -50z m-863 -197 c-3 -21 -5 -91 -5
-155 l-1 -118 -52 0 c-45 0 -202 -20 -247 -32 -9 -2 -20 16 -32 57 -50 163
-68 230 -61 237 16 16 214 46 305 47 l98 1 -5 -37z m259 5 c89 -18 225 -63
225 -74 0 -7 -91 -226 -106 -255 l-13 -27 -84 28 c-46 16 -112 32 -146 36 -34
3 -64 11 -67 16 -6 9 13 269 21 295 5 14 15 13 170 -19z m-1246 -200 c12 -16
7 -23 -42 -68 -30 -27 -80 -81 -112 -120 -31 -38 -60 -70 -64 -70 -10 0 -236
170 -239 180 -5 14 114 154 198 233 l71 67 87 -102 c48 -57 93 -111 101 -120z
m536 45 c21 -60 44 -123 52 -142 14 -35 10 -51 -12 -51 -18 0 -154 -71 -210
-110 l-42 -29 -91 122 c-51 67 -92 124 -92 127 0 20 305 187 346 189 7 1 29
-47 49 -106z m1696 39 c54 -57 159 -189 183 -229 6 -12 -47 -51 -196 -146
l-56 -36 -50 67 c-28 37 -76 95 -107 130 l-58 63 49 52 c127 135 159 167 165
167 4 0 35 -30 70 -68z m-531 -79 c52 -35 116 -82 142 -106 l47 -42 -107 -112
-107 -112 -53 44 c-29 24 -87 65 -128 91 -40 25 -74 48 -74 50 0 2 30 64 67
138 77 157 58 152 213 49z m-1528 -218 l97 -114 -66 -68 c-36 -37 -82 -92
-101 -120 -19 -29 -37 -53 -39 -53 -3 0 -28 15 -56 34 -29 18 -87 54 -129 80
l-77 48 17 26 c63 101 222 283 246 281 6 0 55 -51 108 -114z m-552 -25 c66
-44 120 -83 120 -86 0 -3 -9 -19 -21 -35 -11 -16 -45 -81 -75 -144 -30 -63
-57 -115 -61 -115 -3 0 -68 23 -145 51 -160 59 -151 39 -81 189 57 123 115
220 131 220 7 0 66 -36 132 -80z m1498 49 c42 -9 52 -14 48 -27 -3 -9 -8 -30
-11 -47 -4 -16 -18 -75 -32 -130 l-25 -100 -149 0 c-133 0 -149 2 -149 17 0 9
-11 65 -25 125 -14 59 -28 118 -30 130 -6 26 9 32 109 43 79 8 183 4 264 -11z
m868 -56 c61 -69 197 -295 183 -307 -9 -7 -272 -126 -274 -124 -1 2 -24 41
-51 87 -27 46 -64 101 -82 122 -19 21 -32 45 -30 52 4 18 200 196 216 197 7 0
24 -12 38 -27z m-1286 -129 l48 -141 -61 -29 c-34 -16 -91 -51 -126 -77 l-64
-49 -108 108 -109 108 27 28 c64 67 295 203 332 196 9 -2 33 -59 61 -144z
m665 103 c75 -37 192 -117 230 -157 l29 -31 -109 -108 -108 -108 -54 43 c-30
25 -86 60 -124 80 -47 23 -69 40 -66 49 5 12 84 237 93 263 5 16 28 10 109
-31z m1165 -79 c68 -144 105 -249 90 -258 -23 -14 -272 -81 -284 -77 -7 3 -16
19 -19 37 -4 17 -31 82 -61 145 -39 83 -51 117 -43 123 7 5 57 35 112 67 55
32 109 64 120 71 11 8 21 14 23 14 2 0 30 -55 62 -122z m-2718 -161 c24 -13
82 -45 130 -71 l88 -47 -19 -37 c-15 -29 -64 -171 -86 -248 -3 -9 -23 -8 -77
2 -40 8 -103 19 -140 25 -36 7 -71 14 -76 18 -27 17 97 381 130 381 4 0 27
-11 50 -23z m508 -92 c51 -41 103 -84 117 -95 l25 -19 -25 -33 c-32 -42 -77
-132 -92 -183 -14 -47 -13 -47 -170 -9 -55 13 -108 24 -117 24 -28 0 -29 15
-7 87 33 107 142 303 168 303 5 0 51 -34 101 -75z m1411 14 c70 -104 154 -307
134 -327 -7 -7 -255 -62 -282 -62 -17 0 -23 6 -23 23 0 25 -59 153 -92 199
-20 29 -20 30 -2 48 18 18 217 179 221 180 1 0 21 -28 44 -61z m-661 11 c15
-9 7 -53 -46 -247 l-15 -53 -57 0 c-33 0 -74 -8 -97 -19 l-40 -18 -82 123
c-46 68 -83 128 -83 134 0 13 71 49 140 71 61 20 253 26 280 9z m-1632 -70
c68 -21 125 -40 127 -42 2 -2 -4 -32 -14 -68 -10 -36 -24 -109 -31 -164 l-13
-98 -126 6 c-178 10 -181 11 -181 50 0 45 36 249 55 314 14 47 18 52 38 46 12
-4 77 -24 145 -44z m1903 -81 c69 -69 152 -211 133 -228 -5 -4 -67 -25 -139
-46 -71 -21 -135 -40 -141 -42 -6 -2 -19 15 -29 37 -18 40 -75 100 -95 100
-18 0 -11 19 55 156 l64 136 43 -24 c24 -12 73 -53 109 -89z m885 64 c20 -48
59 -219 69 -300 l7 -60 -54 -6 c-116 -13 -258 -19 -258 -11 0 30 -32 189 -47
239 l-19 60 140 57 c78 31 142 57 143 57 2 1 10 -16 19 -36z m448 -111 c21
-117 39 -289 32 -307 -4 -12 -33 -15 -161 -15 l-155 0 0 53 c0 28 -7 103 -16
165 -9 62 -15 115 -13 117 4 3 264 71 285 73 7 1 18 -35 28 -86z m-2000 -61
c72 -72 104 -111 96 -116 -20 -12 -60 -107 -60 -142 0 -31 -1 -32 -52 -37 -29
-3 -100 -7 -157 -10 l-103 -5 4 82 c4 58 13 102 33 150 26 65 106 187 123 187
4 0 56 -49 116 -109z m-855 -145 l95 -11 -2 -100 c-1 -55 2 -126 6 -157 5 -32
8 -58 8 -58 -8 -4 -302 -57 -304 -55 -17 16 -31 350 -16 389 7 17 6 17 213 -8z
m321 -36 c52 -6 114 -13 138 -16 l42 -5 0 -77 c1 -42 7 -106 15 -142 7 -36 11
-68 7 -71 -10 -9 -282 -102 -286 -98 -2 2 -11 36 -20 74 -24 94 -36 218 -29
294 5 50 9 61 22 57 9 -3 59 -10 111 -16z m1753 -46 c7 -67 -6 -197 -27 -284
-20 -79 -66 -192 -76 -188 -4 2 -67 32 -139 68 -98 48 -131 69 -127 80 3 8 15
42 27 75 14 40 23 94 27 162 4 83 8 103 21 107 9 3 72 10 141 17 69 6 127 13
129 15 13 12 19 -2 24 -52z m-393 -81 c-1 -120 -50 -244 -137 -342 l-38 -43
-83 90 c-125 137 -127 140 -109 160 27 30 57 105 57 145 0 21 5 39 13 41 12 4
199 21 265 24 l32 2 0 -77z m-1993 -3 c1 -30 8 -104 14 -163 6 -59 9 -111 5
-114 -4 -4 -42 -15 -84 -24 -42 -9 -105 -22 -139 -29 -34 -8 -65 -11 -68 -8
-11 10 -34 173 -41 288 l-7 111 159 -3 159 -3 2 -55z m2790 -67 c-6 -114 -45
-303 -61 -303 -6 0 -73 19 -149 42 -134 42 -138 44 -133 68 23 125 36 212 36
248 l0 42 156 0 157 0 -6 -97z m411 32 c12 -10 -49 -381 -65 -395 -4 -4 -73
11 -152 33 l-143 41 6 35 c21 113 36 221 36 259 l0 42 158 -6 c86 -4 158 -8
160 -9z m-1974 -40 c10 -25 36 -61 58 -79 l40 -35 -72 -135 -71 -136 -32 17
c-64 36 -164 148 -200 225 -57 117 -63 107 98 150 77 20 145 37 150 37 6 1 18
-19 29 -44z m421 -236 c89 -150 90 -139 -14 -181 -48 -20 -75 -23 -193 -23
-87 0 -141 4 -148 11 -8 8 -2 41 23 120 19 60 39 124 43 143 l9 35 65 -2 c38
-1 77 4 95 12 17 8 33 15 36 15 3 1 41 -58 84 -130z m-1185 -7 c16 -45 43
-107 61 -138 18 -31 28 -59 23 -64 -5 -5 -63 -43 -129 -84 -93 -58 -123 -72
-132 -63 -33 35 -166 349 -152 361 8 7 274 74 287 73 7 -1 26 -39 42 -85z
m438 24 c17 -29 56 -81 88 -115 51 -56 55 -63 42 -79 -8 -9 -49 -61 -92 -114
-43 -54 -83 -98 -90 -98 -21 0 -140 131 -194 213 -54 82 -70 119 -56 124 5 2
65 30 134 62 69 33 128 60 132 60 3 1 20 -23 36 -53z m1160 -64 c31 -21 85
-55 119 -76 l63 -37 -32 -47 c-48 -70 -135 -159 -206 -210 -54 -38 -65 -43
-76 -31 -8 8 -45 66 -84 130 l-71 117 60 46 c32 25 78 71 102 101 23 31 48 53
55 50 7 -2 38 -22 70 -43z m-1989 -64 c12 -40 40 -110 61 -155 l39 -83 -42
-24 c-106 -60 -230 -126 -233 -123 -2 2 -24 46 -48 99 -51 109 -100 253 -93
272 3 7 36 20 74 30 37 9 95 25 128 35 90 29 88 30 114 -51z m2445 36 c137
-53 170 -67 180 -75 16 -14 -171 -349 -196 -349 -6 0 -205 155 -232 180 -5 5
12 40 38 82 26 40 61 101 78 136 17 34 33 62 36 62 2 0 46 -16 96 -36z m458
-90 l136 -45 -8 -27 c-19 -67 -121 -283 -152 -326 -14 -17 -21 -14 -144 63
l-130 82 46 92 c26 51 58 118 70 150 13 31 28 57 34 57 6 0 72 -20 148 -46z
m-1802 -64 c33 -17 90 -37 126 -44 36 -8 67 -15 68 -17 4 -5 -25 -303 -30
-308 -10 -11 -227 53 -299 88 -119 59 -115 47 -53 142 30 46 67 103 81 127 15
23 32 42 37 42 6 0 37 -14 70 -30z m580 -72 c18 -40 49 -104 67 -141 l34 -68
-53 -23 c-29 -13 -84 -31 -122 -40 -73 -19 -226 -37 -238 -29 -5 2 -8 74 -8
159 l0 154 39 0 c52 0 175 26 209 45 15 8 30 14 33 15 3 0 21 -33 39 -72z
m-1105 -29 c39 -47 122 -126 164 -156 2 -1 -38 -58 -89 -127 l-93 -125 -58 45
c-60 46 -178 170 -210 221 l-19 30 123 86 c67 48 124 87 127 87 3 0 28 -27 55
-61z m1685 -140 l111 -102 -38 -39 c-41 -43 -173 -148 -240 -190 l-41 -27 -76
128 c-42 70 -76 131 -76 137 0 5 26 26 58 46 31 21 84 63 117 93 33 30 63 55
67 55 3 0 56 -46 118 -101z m-1980 -138 l62 -74 -84 -81 c-149 -142 -134 -132
-159 -110 -57 51 -236 290 -225 301 3 3 63 41 133 83 l128 77 41 -61 c23 -33
70 -94 104 -135z m2447 19 c46 -30 83 -60 83 -67 0 -30 -241 -308 -262 -301
-4 2 -52 53 -107 113 l-99 110 62 65 c34 36 83 93 110 127 l48 62 42 -27 c23
-15 78 -52 123 -82z m-1859 20 c38 -22 99 -51 136 -64 36 -12 68 -25 71 -28
10 -10 -71 -298 -83 -298 -41 0 -326 133 -351 163 -7 10 11 46 72 140 45 69
83 126 84 127 1 0 33 -18 71 -40z m1037 -166 c37 -74 65 -137 63 -140 -13 -12
-194 -77 -263 -94 -113 -28 -123 -27 -129 13 -3 17 -14 85 -24 150 l-19 117
26 6 c65 13 141 36 196 58 33 13 65 25 72 25 6 1 41 -60 78 -135z m-569 40
l131 -7 11 -126 c7 -69 12 -138 12 -153 l0 -28 -127 0 c-122 0 -249 14 -266
30 -5 4 3 65 18 136 36 177 32 167 63 160 15 -3 86 -9 158 -12z m-871 -90 c28
-23 83 -63 123 -88 39 -26 72 -51 72 -56 0 -22 -139 -260 -152 -260 -15 0
-182 114 -259 177 l-68 56 106 113 c61 67 110 111 117 107 6 -4 34 -25 61 -49z
m1911 -101 c48 -60 91 -114 97 -120 6 -9 2 -19 -14 -33 -41 -35 -211 -146
-267 -174 l-52 -26 -69 139 -69 140 72 40 c39 21 103 62 141 90 39 27 71 50
72 50 1 1 41 -47 89 -106z m-1585 -97 c64 -27 157 -60 217 -76 33 -9 42 -15
38 -28 -3 -9 -17 -66 -31 -127 -14 -60 -27 -121 -30 -134 -5 -20 -10 -22 -41
-17 -98 19 -344 116 -344 136 0 11 128 270 134 270 2 0 28 -11 57 -24z m1159
-33 c19 -42 110 -254 110 -258 0 -5 -85 -37 -175 -65 -118 -36 -205 -54 -215
-43 -7 8 -50 252 -50 286 0 10 8 17 19 17 26 0 231 59 261 76 34 18 35 18 50
-13z m-599 -81 l196 -4 12 -102 c6 -55 14 -124 17 -152 l6 -52 -108 -7 c-106
-8 -352 7 -392 23 -17 7 -17 13 6 147 31 176 28 169 50 160 9 -5 105 -10 213
-13z"/>
<path d="M10105 8169 c-148 -66 -322 -143 -385 -171 -63 -28 -119 -54 -124
-59 -9 -8 52 -159 64 -159 4 0 51 20 106 45 54 25 104 45 109 45 6 0 34 -54
63 -120 l53 -121 -23 -37 c-12 -20 -48 -77 -79 -125 l-57 -88 41 -95 c23 -52
44 -94 47 -94 3 0 44 61 90 135 46 74 84 135 86 135 1 0 25 -15 52 -34 71 -47
139 -62 211 -46 78 17 141 51 185 100 52 58 66 97 66 185 0 84 -17 146 -81
290 -22 50 -64 142 -92 205 -28 63 -53 118 -56 122 -3 4 -127 -47 -276 -113z
m275 -257 c53 -122 64 -156 64 -203 1 -67 -19 -101 -74 -129 -75 -38 -150 -19
-202 52 -33 44 -141 284 -136 300 5 13 242 125 268 127 10 0 36 -48 80 -147z"/>
<path d="M3086 7912 c-3 -5 -19 -47 -35 -93 -79 -228 -125 -355 -131 -362 -4
-5 -104 26 -221 68 -385 139 -432 155 -444 155 -16 0 -70 -149 -59 -159 5 -4
29 -15 54 -23 104 -37 223 -79 345 -124 346 -125 407 -146 410 -141 4 4 54
142 110 302 31 88 70 195 86 238 16 43 29 84 29 90 0 7 -26 20 -58 31 -31 10
-62 21 -68 23 -7 2 -15 0 -18 -5z"/>
<path d="M2456 6271 c-62 -65 -17 -166 74 -163 45 1 77 26 89 68 12 42 7 60
-27 97 -37 39 -97 38 -136 -2z"/>
<path d="M10288 6270 c-27 -27 -30 -36 -25 -71 3 -22 13 -49 22 -59 45 -49
125 -40 158 18 17 29 18 39 8 72 -23 76 -107 96 -163 40z"/>
<path d="M9965 5069 c-41 -127 -47 -152 -35 -159 32 -21 46 -10 64 45 9 30 22
55 28 55 10 0 216 -62 252 -76 9 -3 18 7 25 27 6 18 10 33 9 34 -2 1 -61 21
-133 45 -71 24 -132 44 -134 46 -2 2 4 29 15 59 16 49 17 57 4 65 -37 24 -45
12 -95 -141z"/>
<path d="M2684 5161 c-81 -37 -119 -126 -94 -221 34 -132 144 -192 255 -141
78 36 114 107 99 196 -24 144 -142 220 -260 166z m121 -65 c73 -31 101 -144
50 -204 -73 -86 -205 -23 -205 97 0 54 20 87 64 107 40 17 49 17 91 0z"/>
<path d="M9870 4791 c-17 -32 -12 -39 36 -60 26 -12 43 -25 39 -31 -4 -6 -49
-42 -100 -80 -63 -48 -96 -80 -104 -100 -10 -30 -10 -31 52 -59 34 -16 105
-49 158 -74 l96 -45 16 33 15 32 -119 54 c-65 30 -118 59 -118 64 0 8 80 72
172 138 8 6 39 -3 80 -22 37 -17 71 -31 76 -31 5 0 14 14 20 30 l10 31 -87 40
c-242 114 -226 109 -242 80z"/>
<path d="M2965 4715 c-27 -13 -94 -44 -147 -69 -54 -24 -98 -47 -98 -50 0 -13
24 -56 31 -56 5 0 56 23 115 50 59 28 112 50 118 50 8 0 10 -34 8 -107 -2 -60
-5 -113 -7 -119 -2 -7 -35 -26 -74 -44 -39 -18 -71 -34 -71 -36 0 -14 25 -54
34 -54 6 0 77 30 159 68 141 64 148 68 142 92 -10 38 -20 43 -51 27 -72 -37
-69 -41 -66 102 4 129 -4 172 -31 170 -7 0 -34 -11 -62 -24z"/>
<path d="M9666 4367 c-101 -162 -136 -219 -136 -225 0 -8 265 -175 285 -180
11 -3 172 245 164 252 -10 8 -51 27 -53 24 -1 -2 -28 -45 -60 -95 -32 -51 -59
-93 -61 -93 -10 0 -75 43 -75 49 0 4 22 43 50 86 49 80 49 80 29 97 -12 10
-25 15 -30 13 -4 -3 -30 -41 -56 -85 l-47 -79 -28 15 c-15 8 -28 18 -28 22 0
5 25 47 55 96 30 48 55 91 55 95 0 4 -11 13 -25 19 -22 10 -27 9 -39 -11z"/>
<path d="M3131 4259 c-71 -28 -121 -97 -121 -166 0 -53 49 -151 98 -195 49
-45 59 -46 73 -14 10 22 8 28 -24 56 -43 37 -77 104 -77 149 0 24 9 42 34 67
63 63 153 37 200 -58 14 -29 26 -58 26 -65 0 -8 12 -13 30 -13 40 0 40 27 -1
108 -54 110 -154 165 -238 131z"/>
<path d="M9433 4002 c-20 -27 -21 -35 -11 -111 5 -46 8 -85 5 -87 -2 -3 -42
-9 -88 -14 -69 -8 -87 -14 -109 -35 l-25 -26 26 -22 c95 -81 242 -197 249
-197 4 0 15 11 24 25 16 25 16 25 -78 102 l-94 78 36 7 c21 4 59 10 86 13 l49
7 -7 84 c-4 52 -3 84 3 84 5 0 11 -3 13 -7 2 -5 41 -39 87 -77 l83 -68 20 20
c12 11 18 27 15 35 -5 13 -237 208 -256 215 -4 1 -17 -11 -28 -26z"/>
<path d="M3365 3834 c-71 -59 -131 -109 -133 -113 -1 -4 8 -17 21 -29 l23 -22
65 51 c35 29 69 56 75 61 8 5 34 -19 78 -73 76 -93 77 -82 -20 -161 l-64 -52
22 -23 c12 -13 25 -23 28 -23 12 0 255 202 257 214 2 6 -5 21 -15 34 l-17 22
-36 -30 -36 -29 -67 79 c-36 43 -66 83 -66 87 0 4 14 20 31 34 31 25 31 26 14
52 -9 15 -20 27 -24 27 -3 0 -64 -48 -136 -106z"/>
<path d="M9027 3539 l-107 -101 116 -124 c65 -68 121 -124 126 -124 5 0 56 46
114 102 99 96 103 102 88 120 -22 24 -27 23 -61 -9 -16 -16 -53 -50 -81 -77
l-53 -49 -29 28 c-17 16 -30 34 -30 41 0 6 32 40 70 74 67 60 70 64 54 81 -9
11 -22 19 -28 19 -6 0 -40 -29 -76 -65 l-66 -66 -25 27 -24 26 78 74 c42 41
77 78 77 83 0 4 -8 15 -18 24 -17 16 -24 11 -125 -84z"/>
<path d="M3715 3423 c-88 -36 -162 -67 -164 -70 -3 -2 7 -15 21 -29 21 -22 29
-24 46 -15 34 18 44 14 120 -56 71 -66 73 -69 62 -97 -10 -26 -8 -32 14 -55
14 -14 27 -23 29 -20 2 2 30 85 60 184 l56 179 -21 23 c-12 13 -31 23 -42 22
-12 0 -93 -30 -181 -66z m160 -25 c-2 -7 -13 -44 -25 -81 l-22 -69 -49 48
c-27 27 -49 51 -49 55 0 6 117 56 137 58 7 1 11 -5 8 -11z"/>
<path d="M8767 3294 c-55 -19 -117 -67 -149 -116 -60 -88 -23 -205 79 -250 68
-30 152 -10 224 54 35 31 69 100 69 140 0 36 -31 95 -55 104 -9 4 -43 -15 -84
-47 -68 -52 -69 -53 -53 -75 l17 -22 48 34 c26 19 49 34 52 34 3 0 5 -18 5
-39 0 -81 -108 -150 -187 -120 -49 19 -79 70 -69 120 8 46 67 105 118 121 32
9 38 15 38 39 0 36 -7 39 -53 23z"/>
<path d="M4037 3143 l-109 -136 28 -22 28 -22 37 46 c21 25 69 86 108 136 l71
89 -22 23 c-12 13 -24 23 -27 23 -3 0 -55 -62 -114 -137z"/>
<path d="M4205 3018 l-94 -143 22 -17 c12 -10 27 -18 32 -18 6 0 43 50 83 111
l73 111 60 -107 59 -107 -44 -67 -44 -66 21 -17 c12 -10 27 -17 34 -15 7 1 53
65 104 142 l91 139 -22 18 c-31 25 -36 23 -65 -22 -14 -22 -29 -40 -33 -40 -4
0 -31 45 -60 100 -46 85 -91 140 -116 140 -4 0 -49 -64 -101 -142z"/>
<path d="M8287 2982 c-26 -16 -28 -21 -23 -62 3 -25 11 -109 17 -187 8 -94 16
-143 24 -143 26 0 50 29 50 61 0 30 6 36 84 82 l84 50 33 -18 c30 -16 33 -16
58 0 14 10 26 20 25 24 0 7 -297 205 -313 208 -6 2 -24 -5 -39 -15z m120 -114
c72 -46 72 -46 -9 -92 l-47 -27 -5 33 c-12 76 -15 128 -9 128 4 0 35 -19 70
-42z"/>
<path d="M8007 2827 c-16 -11 -16 -15 -1 -60 9 -26 15 -49 13 -51 -2 -1 -56 3
-119 9 -95 10 -121 9 -148 -2 -25 -10 -32 -18 -27 -31 3 -9 32 -81 63 -160 55
-137 58 -142 82 -137 14 4 29 10 34 15 4 4 -13 60 -39 124 -27 64 -45 119 -42
122 3 4 56 2 118 -2 l113 -9 30 -70 c16 -38 31 -72 33 -74 1 -2 16 2 33 9 22
9 29 18 25 29 -3 9 -31 80 -63 158 -58 146 -68 158 -105 130z"/>
<path d="M4863 2763 c-89 -202 -112 -257 -110 -260 6 -6 238 -103 246 -103 10
0 21 24 21 45 0 7 -30 25 -67 39 -38 15 -78 32 -90 39 l-22 12 56 129 c54 123
56 129 38 142 -32 24 -45 16 -72 -43z"/>
<path d="M5217 2508 l-127 -143 32 -11 c29 -10 36 -9 59 12 l25 24 94 -27 c89
-27 94 -30 105 -62 8 -24 20 -38 39 -44 15 -5 29 -7 32 -5 7 7 -54 370 -63
379 -5 5 -22 11 -38 14 -28 6 -38 -3 -158 -137z m160 -25 c6 -43 9 -79 8 -81
-3 -3 -115 27 -128 35 -8 5 91 123 103 123 4 0 12 -35 17 -77z"/>
<path d="M7424 2620 c-21 -8 -34 -63 -65 -280 -5 -36 -12 -73 -15 -82 -4 -13
0 -18 16 -18 35 0 60 19 60 46 0 28 11 33 129 66 l75 20 18 -25 c16 -22 23
-24 50 -17 17 5 33 12 36 15 3 2 -15 26 -39 53 -102 110 -194 215 -197 223 -4
11 -40 11 -68 -1z m146 -192 c0 -6 -73 -33 -110 -40 -23 -4 -24 5 -10 89 l12
76 54 -59 c29 -32 53 -62 54 -66z"/>
<path d="M5660 2556 c0 -3 -9 -51 -19 -108 -11 -57 -22 -123 -26 -148 -4 -25
-8 -52 -11 -61 -3 -12 4 -18 27 -23 18 -3 34 -5 35 -3 2 2 13 52 24 113 11 60
23 119 25 132 5 21 12 17 98 -50 50 -39 94 -73 96 -75 3 -2 -1 -38 -8 -79 -7
-42 -11 -78 -9 -80 3 -2 18 -6 34 -10 l30 -6 30 164 c16 89 29 167 29 173 0 5
-15 12 -32 16 -35 7 -36 6 -48 -63 -3 -21 -8 -38 -11 -38 -2 0 -48 34 -102 75
-75 58 -105 75 -130 75 -18 0 -32 -2 -32 -4z"/>
<path d="M7114 2540 c-12 -4 -43 -38 -70 -74 -26 -36 -50 -66 -52 -66 -2 0
-35 25 -74 55 -62 49 -75 55 -102 49 -17 -3 -33 -8 -34 -9 -2 -2 7 -79 20
-172 l23 -168 30 3 c16 2 32 6 34 8 3 2 -2 55 -11 117 -8 61 -14 114 -12 116
2 2 32 -17 68 -43 35 -25 67 -46 69 -46 3 0 28 30 57 66 28 36 53 64 55 62 2
-2 9 -50 15 -108 15 -140 13 -137 56 -132 32 4 35 7 30 31 -6 31 -35 244 -38
286 -3 33 -25 41 -64 25z"/>
<path d="M6136 2363 c-4 -71 -7 -148 -8 -173 l-2 -45 114 0 c97 0 121 3 155
21 52 27 85 83 85 147 0 120 -84 177 -264 177 l-74 0 -6 -127z m177 58 c77
-18 113 -84 84 -154 -20 -47 -61 -67 -137 -67 l-60 0 0 69 c0 37 3 89 6 115 6
44 8 46 38 46 17 0 48 -4 69 -9z"/>
</g>
</svg>
