<svg width="22" height="22" viewBox="0 0 22 22" fill="none" xmlns="http://www.w3.org/2000/svg">
<rect x="0.108948" y="0.336426" width="21.327" height="21.327" rx="10.6635" fill="#627EEA"/>
<g clip-path="url(#clip0_286_1508)">
<path d="M10.6116 3.89111L10.5171 4.21512V13.6161L10.6116 13.7113L14.9352 11.1318L10.6116 3.89111Z" fill="#A4B2E6"/>
<path d="M10.6097 3.89111L6.28598 11.1318L10.6097 13.7113V9.14828V3.89111Z" fill="white"/>
<path d="M10.6115 14.5381L10.5583 14.6036V17.9524L10.6115 18.1093L14.9377 11.96L10.6115 14.5381Z" fill="#C1CCF7"/>
<path d="M10.6098 18.1093V14.5381L6.28613 11.96L10.6098 18.1093Z" fill="white"/>
<path d="M10.6119 13.7109L14.9355 11.1315L10.6119 9.14795V13.7109Z" fill="#C1CCF7"/>
<path d="M6.28613 11.1315L10.6098 13.7109V9.14795L6.28613 11.1315Z" fill="#A8B6ED"/>
</g>
<defs>
<clipPath id="clip0_286_1508">
<rect width="9.6847" height="14.218" fill="white" transform="translate(6.0329 3.89111)"/>
</clipPath>
</defs>
</svg>
