<svg width="26" height="26" viewBox="0 0 26 26" fill="none" xmlns="http://www.w3.org/2000/svg">
<path d="M3.25002 2.1665H10.8334C11.4834 2.1665 11.9167 2.59984 11.9167 3.24984V10.8332C11.9167 11.4832 11.4834 11.9165 10.8334 11.9165H3.25002C2.60002 11.9165 2.16669 11.4832 2.16669 10.8332V3.24984C2.16669 2.59984 2.60002 2.1665 3.25002 2.1665Z" fill="#6E62E5"/>
<path opacity="0.3" d="M15.1666 2.1665H22.75C23.4 2.1665 23.8333 2.59984 23.8333 3.24984V10.8332C23.8333 11.4832 23.4 11.9165 22.75 11.9165H15.1666C14.5166 11.9165 14.0833 11.4832 14.0833 10.8332V3.24984C14.0833 2.59984 14.5166 2.1665 15.1666 2.1665Z" fill="#6E62E5"/>
<path opacity="0.3" d="M3.25002 14.0835H10.8334C11.4834 14.0835 11.9167 14.5168 11.9167 15.1668V22.7502C11.9167 23.4002 11.4834 23.8335 10.8334 23.8335H3.25002C2.60002 23.8335 2.16669 23.4002 2.16669 22.7502V15.1668C2.16669 14.5168 2.60002 14.0835 3.25002 14.0835Z" fill="#6E62E5"/>
<path opacity="0.3" d="M15.1666 14.0835H22.75C23.4 14.0835 23.8333 14.5168 23.8333 15.1668V22.7502C23.8333 23.4002 23.4 23.8335 22.75 23.8335H15.1666C14.5166 23.8335 14.0833 23.4002 14.0833 22.7502V15.1668C14.0833 14.5168 14.5166 14.0835 15.1666 14.0835Z" fill="#6E62E5"/>
</svg>
