<svg width="28" height="28" viewBox="0 0 28 28" fill="none" xmlns="http://www.w3.org/2000/svg">
<path opacity="0.3" d="M5.24998 12.8335H16.9166C17.561 12.8335 18.0833 13.3558 18.0833 14.0002C18.0833 14.6445 17.561 15.1668 16.9166 15.1668H5.24998C4.60565 15.1668 4.08331 14.6445 4.08331 14.0002C4.08331 13.3558 4.60565 12.8335 5.24998 12.8335Z" fill="#7E8299"/>
<path d="M15.9032 13.6413L13.8549 11.9344C13.3063 11.4773 13.2688 10.6478 13.7737 10.1428C14.2283 9.68813 14.9586 9.66668 15.4392 10.0939L18.8524 13.1278C19.3745 13.5919 19.3745 14.4077 18.8524 14.8718L15.4392 17.9057C14.9586 18.3329 14.2283 18.3114 13.7737 17.8568C13.2688 17.3519 13.3063 16.5222 13.8549 16.0651L15.9032 14.3583C16.1271 14.1718 16.1271 13.8278 15.9032 13.6413Z" fill="#7E8299"/>
<path d="M9.33331 5.83333V7C9.33331 7.64433 9.85565 8.16667 10.5 8.16667C11.1443 8.16667 11.6666 7.64433 11.6666 7C11.6666 6.35567 12.189 5.83333 12.8333 5.83333H21C21.6443 5.83333 22.1666 6.35567 22.1666 7V21C22.1666 21.6444 21.6443 22.1667 21 22.1667H12.8333C12.189 22.1667 11.6666 21.6444 11.6666 21C11.6666 20.3556 11.1443 19.8333 10.5 19.8333C9.85565 19.8333 9.33331 20.3556 9.33331 21V22.1667C9.33331 23.4554 10.378 24.5 11.6666 24.5H22.1666C23.4553 24.5 24.5 23.4554 24.5 22.1667V5.83333C24.5 4.54467 23.4553 3.5 22.1666 3.5H11.6666C10.378 3.5 9.33331 4.54467 9.33331 5.83333Z" fill="#7E8299"/>
</svg>
