<svg width="30" height="30" viewBox="0 0 30 30" fill="none" xmlns="http://www.w3.org/2000/svg">
<path opacity="0.3" d="M15 27.5C17.0711 27.5 18.75 25.8211 18.75 23.75C18.75 21.6789 17.0711 20 15 20C12.9289 20 11.25 21.6789 11.25 23.75C11.25 25.8211 12.9289 27.5 15 27.5Z" fill="#7E8299"/>
<path d="M23.75 18.75V22.5C23.75 23.25 23.25 23.75 22.5 23.75H7.5C6.75 23.75 6.25 23.25 6.25 22.5V18.75C7.625 18.75 8.75 17.625 8.75 16.25V12.5C8.75 9.5 10.875 7 13.75 6.375V3.75C13.75 3 14.25 2.5 15 2.5C15.75 2.5 16.25 3 16.25 3.75V6.375C19.125 7 21.25 9.5 21.25 12.5V16.25C21.25 17.625 22.375 18.75 23.75 18.75ZM13.75 12.5C13.75 11.75 14.25 11.25 15 11.25C15.75 11.25 16.25 10.75 16.25 10C16.25 9.25 15.75 8.75 15 8.75C12.875 8.75 11.25 10.375 11.25 12.5C11.25 13.25 11.75 13.75 12.5 13.75C13.25 13.75 13.75 13.25 13.75 12.5Z" fill="#7E8299"/>
</svg>
