<svg width="26" height="26" viewBox="0 0 26 26" fill="none" xmlns="http://www.w3.org/2000/svg">
<path opacity="0.3" d="M13 11.9167C10.6068 11.9167 8.66669 9.97657 8.66669 7.58333C8.66669 5.1901 10.6068 3.25 13 3.25C15.3933 3.25 17.3334 5.1901 17.3334 7.58333C17.3334 9.97657 15.3933 11.9167 13 11.9167Z" fill="#C9C5F6"/>
<path d="M3.25071 21.8826C3.67061 16.7122 7.86707 14.0835 12.982 14.0835C18.1688 14.0835 22.4303 16.5678 22.7477 21.8835C22.7604 22.0953 22.7477 22.7502 21.9339 22.7502C17.9196 22.7502 11.9543 22.7502 4.03813 22.7502C3.76644 22.7502 3.22783 22.1643 3.25071 21.8826Z" fill="#6E62E5"/>
</svg>
