<svg width="60" height="60" viewBox="0 0 60 60" fill="none" xmlns="http://www.w3.org/2000/svg">
<path d="M30 56.875C28.975 56.875 28.125 56.025 28.125 55V50C28.125 48.975 28.975 48.125 30 48.125C31.025 48.125 31.875 48.975 31.875 50V55C31.875 56.025 31.025 56.875 30 56.875Z" fill="#333333"/>
<path d="M30 46.875C28.975 46.875 28.125 46.025 28.125 45V40C28.125 38.975 28.975 38.125 30 38.125C31.025 38.125 31.875 38.975 31.875 40V45C31.875 46.025 31.025 46.875 30 46.875Z" fill="#333333"/>
<path d="M30 36.875C28.975 36.875 28.125 36.025 28.125 35V27.5C28.125 16.825 36.825 8.125 47.5 8.125H55C56.025 8.125 56.875 8.975 56.875 10C56.875 11.025 56.025 11.875 55 11.875H47.5C38.875 11.875 31.875 18.875 31.875 27.5V35C31.875 36.025 31.025 36.875 30 36.875Z" fill="#333333"/>
<path d="M30 36.875C28.975 36.875 28.125 36.025 28.125 35V27.5C28.125 18.875 21.125 11.875 12.5 11.875H5C3.975 11.875 3.125 11.025 3.125 10C3.125 8.975 3.975 8.125 5 8.125H12.5C23.175 8.125 31.875 16.825 31.875 27.5V35C31.875 36.025 31.025 36.875 30 36.875Z" fill="#333333"/>
<path d="M9.99993 16.875C9.52493 16.875 9.04985 16.7 8.67485 16.325L3.67485 11.325C2.94985 10.6 2.94985 9.39998 3.67485 8.67498L8.67485 3.67498C9.39985 2.94998 10.6 2.94998 11.325 3.67498C12.05 4.39998 12.05 5.59997 11.325 6.32497L7.64992 9.99997L11.325 13.675C12.05 14.4 12.05 15.6 11.325 16.325C10.95 16.7 10.4749 16.875 9.99993 16.875Z" fill="#333333"/>
<path d="M49.9999 16.875C49.5249 16.875 49.0499 16.7 48.6749 16.325C47.9499 15.6 47.9499 14.4 48.6749 13.675L52.3499 9.99997L48.6749 6.32497C47.9499 5.59997 47.9499 4.39998 48.6749 3.67498C49.3999 2.94998 50.6 2.94998 51.325 3.67498L56.325 8.67498C57.05 9.39998 57.05 10.6 56.325 11.325L51.325 16.325C50.95 16.7 50.4749 16.875 49.9999 16.875Z" fill="#333333"/>
</svg>
