<svg width="169" height="46" viewBox="0 0 169 46" fill="none" xmlns="http://www.w3.org/2000/svg">
<g clip-path="url(#clip0_278_1454)">
<path d="M26.5961 8.7684C21.8357 14.1736 16.8802 19.6984 12.1164 25.1048C12.7891 25.1699 13.6594 25.1176 14.331 25.1838C14.5994 31.479 19.0077 36.1429 24.299 37.0887C30.8695 38.2645 38.0989 33.345 38.7763 25.2628L40.8677 25.2233L26.5961 8.7684ZM35.4161 27.9131C34.8659 29.6169 33.8021 31.1088 32.3707 32.1843L32.2545 23.8778L29.0105 22.0188V33.8063L28.2192 33.8853C28.2332 29.4554 28.2464 25.0254 28.2587 20.5954L25.0926 18.6574C25.0794 23.7194 25.0662 28.7822 25.053 33.8458H24.3803C24.3284 30.5491 24.2757 27.2528 24.2223 23.9568L21.0979 22.0583L20.9817 32.0658C19.7677 31.1783 18.8072 29.9884 18.1956 28.6145C17.5841 27.2406 17.3429 25.7306 17.496 24.2345L26.5937 13.7518L35.7298 24.3135C35.8852 25.522 35.7782 26.7498 35.4161 27.9131Z" fill="#6E62E5"/>
</g>
<path d="M51.2359 34V13.8769H54.6037V30.8418H63.4914V34H51.2359ZM70.079 34.4192C68.989 34.4192 68.0667 34.2143 67.3121 33.8044C66.5575 33.3851 65.9845 32.8308 65.5932 32.1414C65.2113 31.452 65.0203 30.6927 65.0203 29.8636C65.0203 29.1369 65.1414 28.4848 65.3836 27.9072C65.6258 27.3203 65.9985 26.8172 66.5016 26.3979C67.0047 25.9694 67.6568 25.62 68.458 25.3499C69.0635 25.1542 69.7716 24.9772 70.5821 24.8188C71.4019 24.6605 72.287 24.5161 73.2372 24.3856C74.1968 24.2459 75.1983 24.0968 76.2417 23.9385L75.0399 24.6232C75.0492 23.5798 74.8163 22.8112 74.3412 22.3174C73.8661 21.8237 73.0649 21.5768 71.9376 21.5768C71.2575 21.5768 70.6007 21.7352 69.9672 22.0519C69.3337 22.3687 68.8912 22.9137 68.6397 23.6869L65.5653 22.7227C65.9379 21.4464 66.646 20.4216 67.6894 19.6483C68.7421 18.8751 70.1582 18.4885 71.9376 18.4885C73.2791 18.4885 74.4576 18.7074 75.4731 19.1453C76.4979 19.5831 77.2572 20.3005 77.7509 21.2973C78.0211 21.8283 78.1841 22.3733 78.24 22.9323C78.2959 23.482 78.3239 24.0829 78.3239 24.735V34H75.3753V30.73L75.8644 31.261C75.1843 32.351 74.3878 33.1522 73.4748 33.6646C72.5711 34.1677 71.4392 34.4192 70.079 34.4192ZM70.7498 31.7362C71.5137 31.7362 72.1658 31.6011 72.7062 31.3309C73.2465 31.0607 73.6751 30.73 73.9918 30.3387C74.3179 29.9474 74.5368 29.5794 74.6486 29.2347C74.8256 28.8062 74.9235 28.3171 74.9421 27.7674C74.97 27.2085 74.984 26.7566 74.984 26.4119L76.0181 26.7194C75.0026 26.8777 74.1316 27.0175 73.4049 27.1386C72.6782 27.2597 72.0541 27.3762 71.5323 27.4879C71.0106 27.5904 70.5495 27.7069 70.1489 27.8373C69.7576 27.9771 69.4269 28.1401 69.1567 28.3264C68.8865 28.5127 68.6769 28.727 68.5279 28.9692C68.3881 29.2115 68.3182 29.4956 68.3182 29.8217C68.3182 30.1943 68.4114 30.525 68.5977 30.8138C68.7841 31.0933 69.0542 31.3169 69.4082 31.4846C69.7716 31.6523 70.2188 31.7362 70.7498 31.7362ZM92.4009 34V26.7333C92.4009 26.2582 92.3683 25.7318 92.303 25.1542C92.2378 24.5766 92.0841 24.0223 91.8419 23.4913C91.609 22.9509 91.255 22.5084 90.7798 22.1637C90.314 21.819 89.6805 21.6467 88.8793 21.6467C88.4508 21.6467 88.0269 21.7165 87.6077 21.8563C87.1884 21.996 86.8065 22.2382 86.4618 22.5829C86.1264 22.9183 85.8562 23.3841 85.6513 23.9804C85.4463 24.5673 85.3438 25.3219 85.3438 26.2442L83.3455 25.3918C83.3455 24.1062 83.5924 22.9416 84.0861 21.8982C84.5892 20.8548 85.3252 20.0256 86.2941 19.4108C87.263 18.7866 88.4554 18.4745 89.8715 18.4745C90.9895 18.4745 91.9118 18.6608 92.6384 19.0335C93.3651 19.4061 93.9427 19.8812 94.3713 20.4588C94.7998 21.0365 95.1166 21.6513 95.3215 22.3035C95.5265 22.9556 95.6569 23.5751 95.7128 24.1621C95.778 24.7397 95.8106 25.2101 95.8106 25.5735V34H92.4009ZM81.9341 34V18.9077H84.9386V23.5891H85.3438V34H81.9341ZM105.263 34.4192C103.874 34.4192 102.663 34.0699 101.629 33.3712C100.595 32.6724 99.7939 31.7222 99.2256 30.5204C98.6573 29.3186 98.3732 27.9631 98.3732 26.4538C98.3732 24.926 98.6573 23.5658 99.2256 22.3733C99.8032 21.1715 100.618 20.2259 101.671 19.5365C102.724 18.8378 103.963 18.4885 105.388 18.4885C106.823 18.4885 108.025 18.8378 108.994 19.5365C109.972 20.2259 110.713 21.1715 111.216 22.3733C111.719 23.5751 111.97 24.9353 111.97 26.4538C111.97 27.9538 111.719 29.3093 111.216 30.5204C110.713 31.7222 109.963 32.6724 108.966 33.3712C107.969 34.0699 106.734 34.4192 105.263 34.4192ZM105.78 31.4008C106.683 31.4008 107.41 31.1958 107.96 30.7859C108.519 30.3667 108.924 29.7844 109.175 29.0391C109.436 28.2938 109.567 27.4321 109.567 26.4538C109.567 25.4663 109.436 24.6046 109.175 23.8686C108.924 23.1233 108.528 22.5457 107.988 22.1358C107.447 21.7165 106.748 21.5069 105.891 21.5069C104.988 21.5069 104.242 21.7305 103.655 22.1777C103.069 22.6156 102.635 23.2118 102.356 23.9664C102.076 24.7117 101.937 25.5409 101.937 26.4538C101.937 27.3762 102.072 28.2146 102.342 28.9692C102.621 29.7145 103.045 30.3061 103.614 30.744C104.182 31.1818 104.904 31.4008 105.78 31.4008ZM109.567 34V23.4074H109.147V13.8769H112.543V34H109.567ZM120.542 34L115.064 18.9077H118.432L122.233 29.8496L126.02 18.9077H129.401L123.924 34H120.542ZM138.225 34.4192C136.697 34.4192 135.356 34.0885 134.2 33.4271C133.045 32.7656 132.141 31.8479 131.489 30.6741C130.847 29.5003 130.525 28.1494 130.525 26.6215C130.525 24.9726 130.842 23.5425 131.475 22.3314C132.109 21.111 132.989 20.1654 134.117 19.4946C135.244 18.8238 136.548 18.4885 138.029 18.4885C139.594 18.4885 140.922 18.8565 142.012 19.5924C143.111 20.3191 143.927 21.3485 144.458 22.6808C144.989 24.013 145.189 25.5828 145.058 27.3901H141.719V26.1604C141.709 24.5207 141.42 23.3236 140.852 22.569C140.284 21.8144 139.39 21.4371 138.169 21.4371C136.79 21.4371 135.765 21.8656 135.095 22.7227C134.424 23.5705 134.089 24.8142 134.089 26.4538C134.089 27.9817 134.424 29.1649 135.095 30.0033C135.765 30.8418 136.744 31.261 138.029 31.261C138.858 31.261 139.571 31.0794 140.167 30.716C140.773 30.3434 141.239 29.8077 141.565 29.109L144.891 30.1151C144.313 31.4753 143.419 32.5327 142.208 33.2873C141.006 34.0419 139.678 34.4192 138.225 34.4192ZM133.027 27.3901V24.8468H143.409V27.3901H133.027ZM148.176 34V18.9077H151.153V22.5829L150.79 22.1078C150.976 21.6047 151.223 21.1482 151.53 20.7383C151.847 20.3191 152.224 19.9744 152.662 19.7042C153.035 19.4527 153.445 19.257 153.892 19.1173C154.348 18.9682 154.814 18.8797 155.289 18.8518C155.765 18.8145 156.226 18.8332 156.673 18.9077V22.0519C156.226 21.9215 155.709 21.8796 155.122 21.9262C154.544 21.9727 154.022 22.1358 153.557 22.4153C153.091 22.6668 152.709 22.9882 152.411 23.3795C152.122 23.7708 151.908 24.2179 151.768 24.721C151.628 25.2148 151.558 25.7505 151.558 26.3281V34H148.176Z" fill="#6E62E5"/>
<defs>
<clipPath id="clip0_278_1454">
<rect width="29" height="28.6398" fill="white" transform="translate(12 8.68008)"/>
</clipPath>
</defs>
</svg>
