<svg width="60" height="60" viewBox="0 0 60 60" fill="none" xmlns="http://www.w3.org/2000/svg">
<path d="M37.5 56.875H22.5C8.925 56.875 3.125 51.075 3.125 37.5V22.5C3.125 8.925 8.925 3.125 22.5 3.125H37.5C51.075 3.125 56.875 8.925 56.875 22.5V37.5C56.875 51.075 51.075 56.875 37.5 56.875ZM22.5 6.875C10.975 6.875 6.875 10.975 6.875 22.5V37.5C6.875 49.025 10.975 53.125 22.5 53.125H37.5C49.025 53.125 53.125 49.025 53.125 37.5V22.5C53.125 10.975 49.025 6.875 37.5 6.875H22.5Z" fill="#D9DAE1"/>
<path d="M26.45 38.95C25.95 38.95 25.475 38.75 25.125 38.4L18.05 31.325C17.325 30.6 17.325 29.4 18.05 28.675C18.775 27.95 19.975 27.95 20.7 28.675L26.45 34.425L39.3 21.575C40.025 20.85 41.225 20.85 41.95 21.575C42.675 22.3 42.675 23.5 41.95 24.225L27.775 38.4C27.425 38.75 26.95 38.95 26.45 38.95Z" fill="#D9DAE1"/>
</svg>
