<svg width="157" height="38" viewBox="0 0 157 38" fill="none" xmlns="http://www.w3.org/2000/svg">
<g clip-path="url(#clip0_286_1469)">
<path d="M14.5961 4.76855C9.83573 10.1737 4.88021 15.6986 0.116394 21.1049C0.789137 21.17 1.6594 21.1177 2.33099 21.184C2.59939 27.4792 7.00766 32.1431 12.299 33.0888C18.8695 34.2647 26.0989 29.3452 26.7763 21.263L28.8677 21.2235L14.5961 4.76855ZM23.4161 23.9133C22.8659 25.6171 21.8021 27.1089 20.3707 28.1844L20.2545 19.878L17.0105 18.0189V29.8065L16.2192 29.8855C16.2332 25.4555 16.2464 21.0256 16.2587 16.5956L13.0926 14.6575C13.0794 19.7196 13.0662 24.7824 13.053 29.846H12.3803C12.3284 26.5492 12.2757 23.2529 12.2223 19.957L9.09792 18.0584L8.98173 28.0659C7.76771 27.1784 6.80717 25.9885 6.19564 24.6146C5.58412 23.2408 5.34291 21.7307 5.49602 20.2347L14.5937 9.75197L23.7298 20.3137C23.8852 21.5222 23.7782 22.7499 23.4161 23.9133Z" fill="#6E62E5"/>
</g>
<path d="M39.2359 30V9.87692H42.6037V26.8418H51.4914V30H39.2359ZM58.079 30.4192C56.989 30.4192 56.0667 30.2143 55.3121 29.8044C54.5575 29.3851 53.9845 28.8308 53.5932 28.1414C53.2113 27.452 53.0203 26.6927 53.0203 25.8636C53.0203 25.1369 53.1414 24.4848 53.3836 23.9072C53.6258 23.3203 53.9985 22.8172 54.5016 22.3979C55.0047 21.9694 55.6568 21.62 56.458 21.3499C57.0635 21.1542 57.7716 20.9772 58.5821 20.8188C59.4019 20.6605 60.287 20.5161 61.2372 20.3856C62.1968 20.2459 63.1983 20.0968 64.2417 19.9385L63.0399 20.6232C63.0492 19.5798 62.8163 18.8112 62.3412 18.3174C61.8661 17.8237 61.0649 17.5768 59.9376 17.5768C59.2575 17.5768 58.6007 17.7352 57.9672 18.0519C57.3337 18.3687 56.8912 18.9137 56.6397 19.6869L53.5653 18.7227C53.9379 17.4464 54.646 16.4216 55.6894 15.6483C56.7421 14.8751 58.1582 14.4885 59.9376 14.4885C61.2791 14.4885 62.4576 14.7074 63.4731 15.1453C64.4979 15.5831 65.2572 16.3005 65.7509 17.2973C66.0211 17.8283 66.1841 18.3733 66.24 18.9323C66.2959 19.482 66.3239 20.0829 66.3239 20.735V30H63.3753V26.73L63.8644 27.261C63.1843 28.351 62.3878 29.1522 61.4748 29.6646C60.5711 30.1677 59.4392 30.4192 58.079 30.4192ZM58.7498 27.7362C59.5137 27.7362 60.1658 27.6011 60.7062 27.3309C61.2465 27.0607 61.6751 26.73 61.9918 26.3387C62.3179 25.9474 62.5368 25.5794 62.6486 25.2347C62.8256 24.8062 62.9235 24.3171 62.9421 23.7674C62.97 23.2085 62.984 22.7566 62.984 22.4119L64.0181 22.7194C63.0026 22.8777 62.1316 23.0175 61.4049 23.1386C60.6782 23.2597 60.0541 23.3762 59.5323 23.4879C59.0106 23.5904 58.5495 23.7069 58.1489 23.8373C57.7576 23.9771 57.4269 24.1401 57.1567 24.3264C56.8865 24.5127 56.6769 24.727 56.5279 24.9692C56.3881 25.2115 56.3182 25.4956 56.3182 25.8217C56.3182 26.1943 56.4114 26.525 56.5977 26.8138C56.7841 27.0933 57.0542 27.3169 57.4082 27.4846C57.7716 27.6523 58.2188 27.7362 58.7498 27.7362ZM80.4009 30V22.7333C80.4009 22.2582 80.3683 21.7318 80.303 21.1542C80.2378 20.5766 80.0841 20.0223 79.8419 19.4913C79.609 18.9509 79.255 18.5084 78.7798 18.1637C78.314 17.819 77.6805 17.6467 76.8793 17.6467C76.4508 17.6467 76.0269 17.7165 75.6077 17.8563C75.1884 17.996 74.8065 18.2382 74.4618 18.5829C74.1264 18.9183 73.8562 19.3841 73.6513 19.9804C73.4463 20.5673 73.3438 21.3219 73.3438 22.2442L71.3455 21.3918C71.3455 20.1062 71.5924 18.9416 72.0861 17.8982C72.5892 16.8548 73.3252 16.0256 74.2941 15.4108C75.263 14.7866 76.4554 14.4745 77.8715 14.4745C78.9895 14.4745 79.9118 14.6608 80.6384 15.0335C81.3651 15.4061 81.9427 15.8812 82.3713 16.4588C82.7998 17.0365 83.1166 17.6513 83.3215 18.3035C83.5265 18.9556 83.6569 19.5751 83.7128 20.1621C83.778 20.7397 83.8106 21.2101 83.8106 21.5735V30H80.4009ZM69.9341 30V14.9077H72.9386V19.5891H73.3438V30H69.9341ZM93.2625 30.4192C91.8744 30.4192 90.6633 30.0699 89.6292 29.3712C88.5951 28.6724 87.7939 27.7222 87.2256 26.5204C86.6573 25.3186 86.3732 23.9631 86.3732 22.4538C86.3732 20.926 86.6573 19.5658 87.2256 18.3733C87.8032 17.1715 88.6184 16.2259 89.6711 15.5365C90.7238 14.8378 91.9629 14.4885 93.3883 14.4885C94.823 14.4885 96.0248 14.8378 96.9937 15.5365C97.9719 16.2259 98.7125 17.1715 99.2156 18.3733C99.7187 19.5751 99.9702 20.9353 99.9702 22.4538C99.9702 23.9538 99.7187 25.3093 99.2156 26.5204C98.7125 27.7222 97.9626 28.6724 96.9657 29.3712C95.9689 30.0699 94.7345 30.4192 93.2625 30.4192ZM93.7796 27.4008C94.6832 27.4008 95.4099 27.1958 95.9596 26.7859C96.5185 26.3667 96.9238 25.7844 97.1753 25.0391C97.4362 24.2938 97.5666 23.4321 97.5666 22.4538C97.5666 21.4663 97.4362 20.6046 97.1753 19.8686C96.9238 19.1233 96.5279 18.5457 95.9875 18.1358C95.4472 17.7165 94.7485 17.5069 93.8914 17.5069C92.9877 17.5069 92.2424 17.7305 91.6555 18.1777C91.0685 18.6156 90.6353 19.2118 90.3559 19.9664C90.0764 20.7117 89.9366 21.5409 89.9366 22.4538C89.9366 23.3762 90.0717 24.2146 90.3419 24.9692C90.6214 25.7145 91.0453 26.3061 91.6135 26.744C92.1818 27.1818 92.9038 27.4008 93.7796 27.4008ZM97.5666 30V19.4074H97.1474V9.87692H100.543V30H97.5666ZM108.542 30L103.064 14.9077H106.432L110.233 25.8496L114.02 14.9077H117.401L111.924 30H108.542ZM126.225 30.4192C124.697 30.4192 123.356 30.0885 122.2 29.4271C121.045 28.7656 120.141 27.8479 119.489 26.6741C118.847 25.5003 118.525 24.1494 118.525 22.6215C118.525 20.9726 118.842 19.5425 119.475 18.3314C120.109 17.111 120.989 16.1654 122.117 15.4946C123.244 14.8238 124.548 14.4885 126.029 14.4885C127.594 14.4885 128.922 14.8565 130.012 15.5924C131.111 16.3191 131.927 17.3485 132.458 18.6808C132.989 20.013 133.189 21.5828 133.058 23.3901H129.719V22.1604C129.709 20.5207 129.42 19.3236 128.852 18.569C128.284 17.8144 127.39 17.4371 126.169 17.4371C124.79 17.4371 123.765 17.8656 123.095 18.7227C122.424 19.5705 122.089 20.8142 122.089 22.4538C122.089 23.9817 122.424 25.1649 123.095 26.0033C123.765 26.8418 124.744 27.261 126.029 27.261C126.858 27.261 127.571 27.0794 128.167 26.716C128.773 26.3434 129.239 25.8077 129.565 25.109L132.891 26.1151C132.313 27.4753 131.419 28.5327 130.208 29.2873C129.006 30.0419 127.678 30.4192 126.225 30.4192ZM121.027 23.3901V20.8468H131.409V23.3901H121.027ZM136.176 30V14.9077H139.153V18.5829L138.79 18.1078C138.976 17.6047 139.223 17.1482 139.53 16.7383C139.847 16.3191 140.224 15.9744 140.662 15.7042C141.035 15.4527 141.445 15.257 141.892 15.1173C142.348 14.9682 142.814 14.8797 143.289 14.8518C143.765 14.8145 144.226 14.8332 144.673 14.9077V18.0519C144.226 17.9215 143.709 17.8796 143.122 17.9262C142.544 17.9727 142.022 18.1358 141.557 18.4153C141.091 18.6668 140.709 18.9882 140.411 19.3795C140.122 19.7708 139.908 20.2179 139.768 20.721C139.628 21.2148 139.558 21.7505 139.558 22.3281V30H136.176Z" fill="#6E62E5"/>
<defs>
<clipPath id="clip0_286_1469">
<rect width="29" height="28.6398" fill="white" transform="translate(0 4.68018)"/>
</clipPath>
</defs>
</svg>
