<svg xmlns="http://www.w3.org/2000/svg" width="45" height="56" fill="none" viewBox="0 0 45 56">
  <path fill="url(#a)" d="M29.973 4.579c.082.142-.026.317-.187.317-3.254 0-5.899 2.645-5.96 5.93a9.502 9.502 0 0 0-3.41-.032c-.079-3.27-2.717-5.898-5.96-5.898-.16 0-.27-.175-.187-.318C15.844 1.84 18.77 0 22.12 0c3.35 0 6.277 1.84 7.852 4.579Z"/>
  <path fill="url(#b)" d="M39.61 24.903c1.106.344 2.15-.655 1.732-1.762-3.104-8.226-12.292-11.597-19.266-11.597-6.988 0-16.38 3.48-19.282 11.648-.39 1.1.65 2.066 1.74 1.723l16.714-5.258a2.48 2.48 0 0 1 1.48-.002l16.882 5.248Z"/>
  <path fill="url(#c)" d="m2.631 26.486 18.631-5.8c.48-.15.991-.15 1.471-.002l18.748 5.805c1.566.485 2.637 1.965 2.637 3.644V47.62c-.073 4.27-3.808 7.69-7.965 7.69h-6.905c-.682 0-1.235-.566-1.235-1.267v-6.131c0-2.415 1.392-4.6 3.546-5.567 2.887-1.297 6.303-3.05 6.945-6.57.208-1.135-.514-2.231-1.617-2.456-2.791-.57-5.885-.35-8.501.852-2.97 1.363-3.747 3.632-4.035 6.678l-.348 3.282c-.107 1.003-1.023 1.772-2.005 1.772-1.017 0-1.779-.795-1.89-1.833l-.341-3.22c-.247-2.61-.693-5.145-3.321-6.352-2.998-1.376-6.01-1.833-9.215-1.18-1.103.226-1.825 1.322-1.617 2.457.648 3.55 4.037 5.264 6.945 6.57 2.154.967 3.546 3.152 3.546 5.567v6.13c0 .701-.552 1.269-1.235 1.269H7.965c-4.157 0-7.892-3.422-7.965-7.69V30.127c0-1.676 1.069-3.155 2.631-3.642Z"/>
  <defs>
    <linearGradient id="a" x1="21.627" x2="41.9" y1="-2.987" y2="55.252" gradientUnits="userSpaceOnUse">
      <stop stop-color="#F5B75E"/>
      <stop offset="1" stop-color="#FF9600"/>
    </linearGradient>
    <linearGradient id="b" x1="21.626" x2="41.899" y1="-2.987" y2="55.252" gradientUnits="userSpaceOnUse">
      <stop stop-color="#F5B75E"/>
      <stop offset="1" stop-color="#FF9600"/>
    </linearGradient>
    <linearGradient id="c" x1="21.626" x2="41.9" y1="-2.987" y2="55.252" gradientUnits="userSpaceOnUse">
      <stop stop-color="#F5B75E"/>
      <stop offset="1" stop-color="#FF9600"/>
    </linearGradient>
  </defs>
</svg>
