<svg width="213" height="179" viewBox="0 0 213 179" fill="none" xmlns="http://www.w3.org/2000/svg">
<rect x="1" y="1" width="211" height="177" rx="47" stroke="black" stroke-width="2"/>
<path d="M61.5073 64.2711C59.4479 60.6772 54.865 59.4333 51.2711 61.4927C47.6772 63.5521 46.4333 68.135 48.4927 71.7289L61.5073 64.2711ZM48.4927 71.7289C52.92 79.4551 60.5275 91.0226 69.1084 100.769C73.393 105.635 78.1102 110.266 82.9718 113.737C87.6885 117.104 93.3979 120 99.5 120V105C98.0021 105 95.4115 104.187 91.6875 101.529C88.1086 98.9737 84.2445 95.2608 80.3666 90.8564C72.6225 82.0607 65.58 71.3783 61.5073 64.2711L48.4927 71.7289Z" fill="#959B9E"/>
<path d="M147.993 64.2711C150.052 60.6772 154.635 59.4333 158.229 61.4927C161.823 63.5521 163.067 68.135 161.007 71.7289L147.993 64.2711ZM161.007 71.7289C156.58 79.4551 148.972 91.0226 140.392 100.769C136.107 105.635 131.39 110.266 126.528 113.737C121.811 117.104 116.102 120 110 120V105C111.498 105 114.089 104.187 117.812 101.529C121.391 98.9737 125.255 95.2608 129.133 90.8564C136.878 82.0607 143.92 71.3783 147.993 64.2711L161.007 71.7289Z" fill="#959B9E"/>
<path d="M99 112.5H110" stroke="#959B9E" stroke-width="15" stroke-linecap="round"/>
</svg>
