<svg width="178" height="40" viewBox="0 0 178 40" fill="none" xmlns="http://www.w3.org/2000/svg">
<path fill-rule="evenodd" clip-rule="evenodd" d="M0.116211 19.8913C0.116211 30.799 9.10993 39.641 20.2045 39.641C31.299 39.641 40.2933 30.799 40.2933 19.8913C40.2933 8.98373 31.299 0.141602 20.2045 0.141602C9.10993 0.141602 0.116211 8.98373 0.116211 19.8913Z" fill="#0C0C4F"/>
<path fill-rule="evenodd" clip-rule="evenodd" d="M11.3438 15.2385L11.8396 13.7323C11.9404 13.426 12.1864 13.1876 12.4991 13.0936L14.0386 12.6281C14.2517 12.5641 14.2535 12.2686 14.0421 12.2012L12.5095 11.7136C12.1985 11.6146 11.956 11.3728 11.8598 11.0653L11.3869 9.55173C11.3219 9.34278 11.0212 9.3405 10.9527 9.54888L10.4568 11.0551C10.356 11.3609 10.1101 11.5993 9.79733 11.6938L8.25781 12.1587C8.04471 12.2233 8.0424 12.5183 8.25435 12.5857L9.78695 13.0732C10.098 13.1723 10.3405 13.4146 10.4366 13.7221L10.9095 15.2351C10.9746 15.4446 11.2752 15.4469 11.3438 15.2385Z" fill="#FAFAFA"/>
<path fill-rule="evenodd" clip-rule="evenodd" d="M35.6774 14.3619C35.0427 13.6642 34.0523 13.2713 33.0893 13.1102C32.1187 12.9555 31.1008 12.9699 30.1427 13.1372C28.2037 13.4597 26.4423 14.249 24.9059 15.2227C24.1081 15.7006 23.4278 16.2535 22.7229 16.8167C22.3832 17.1015 22.0736 17.4048 21.7511 17.7037L20.87 18.5657C19.9125 19.5496 18.9688 20.4458 18.0557 21.1886C17.1389 21.928 16.2818 22.4896 15.4371 22.8818C14.593 23.276 13.6897 23.5078 12.5124 23.5449C11.3455 23.5854 9.96477 23.3783 8.48793 23.0365C7.00315 22.6963 5.44397 22.2112 3.70166 21.7939C4.30958 23.4521 5.22509 24.9174 6.40044 26.2568C7.58961 27.5731 9.07454 28.7728 10.9821 29.5616C12.8621 30.3681 15.2247 30.6576 17.4337 30.2208C19.6487 29.8018 21.5924 28.7941 23.1635 27.6288C24.7387 26.4513 26.0131 25.1103 27.0874 23.7162C27.3839 23.331 27.5408 23.1154 27.7554 22.8143L28.3487 21.9505C28.7609 21.4161 29.1362 20.8077 29.5441 20.2783C30.3441 19.1695 31.1329 18.062 32.0493 17.0416C32.5106 16.5241 32.997 16.0291 33.5712 15.5533C33.8575 15.3211 34.167 15.0939 34.5098 14.8892C34.8576 14.6684 35.2251 14.4956 35.6774 14.3619Z" fill="#EC796B"/>
<path fill-rule="evenodd" clip-rule="evenodd" d="M35.6774 14.3619C34.9957 12.6704 33.7281 11.2465 32.0267 10.1959C30.3357 9.15671 27.9871 8.62641 25.6596 9.07846C24.5099 9.29709 23.396 9.71799 22.4185 10.2785C21.4454 10.8368 20.5734 11.5088 19.8185 12.2298C19.4416 12.5915 19.0995 12.9688 18.7597 13.3482L17.879 14.4523L16.5185 16.2295C14.7842 18.5161 12.9166 21.1958 9.85179 21.9899C6.84298 22.7694 5.53801 22.079 3.70166 21.7938C4.03742 22.6461 4.45335 23.4738 5.01721 24.2019C5.57056 24.9448 6.22415 25.6425 7.03674 26.2407C7.44742 26.528 7.88097 26.8115 8.36249 27.0517C8.84182 27.2842 9.35875 27.4887 9.9105 27.6425C11.008 27.9382 12.2436 28.042 13.4399 27.8827C14.6368 27.7257 15.7808 27.353 16.7809 26.8577C17.7882 26.367 18.6658 25.7695 19.4493 25.139C21.007 23.8672 22.2186 22.4621 23.242 21.0417C23.7568 20.3315 24.224 19.608 24.6562 18.8842L25.1648 18.0226C25.3203 17.7707 25.4775 17.5173 25.6372 17.2813C26.2818 16.333 26.9122 15.5727 27.6779 15.002C28.4328 14.4166 29.4843 13.984 30.8892 13.8835C32.2883 13.7818 33.9035 13.9697 35.6774 14.3619Z" fill="#FAFAFA"/>
<path fill-rule="evenodd" clip-rule="evenodd" d="M28.1084 28.416C28.1084 29.6583 29.1334 30.666 30.397 30.666C31.6608 30.666 32.6843 29.6583 32.6843 28.416C32.6843 27.1738 31.6608 26.166 30.397 26.166C29.1334 26.166 28.1084 27.1738 28.1084 28.416Z" fill="#EC796B"/>
<path d="M80.0487 14.3604V12.0961C80.0487 12.0064 79.9747 11.9336 79.8834 11.9336H66.761C66.6697 11.9336 66.5957 12.0064 66.5957 12.0961V14.3604H71.9288V28.8457C71.9288 28.9355 72.0028 29.0082 72.0944 29.0082H74.55C74.6413 29.0082 74.7153 28.9355 74.7153 28.8457V14.3604H80.0487Z" fill="#0C0C4F"/>
<path d="M126.933 12.2737L126.996 12.2056C127.093 12.1013 127.018 11.9336 126.874 11.9336H123.824L123.762 12.0041C123.357 12.4659 122.854 13.0086 122.251 13.6325C121.665 14.241 121.038 14.8818 120.37 15.5546C119.702 16.2272 119.026 16.8998 118.342 17.5724C117.794 18.0976 117.284 18.5817 116.81 19.0247V11.9336H114.189C114.097 11.9336 114.023 12.0064 114.023 12.0961V28.8457C114.023 28.9355 114.097 29.0082 114.189 29.0082H116.81V21.2622C117.385 21.6326 117.973 22.0659 118.574 22.5627L118.575 22.5634L118.576 22.5641C119.304 23.1525 120.016 23.7969 120.712 24.4975L120.714 24.4991L120.716 24.5008C121.428 25.1847 122.099 25.9087 122.73 26.6722L122.731 26.6732L122.732 26.674C123.363 27.4217 123.92 28.1685 124.405 28.9145L124.465 29.0082H127.439C127.566 29.0082 127.646 28.8732 127.582 28.7647L127.547 28.704C127.101 27.9405 126.541 27.1387 125.867 26.2992C125.211 25.4607 124.506 24.6387 123.752 23.833C122.998 23.0272 122.227 22.2695 121.44 21.5599C120.727 20.9172 120.046 20.3653 119.396 19.9051C119.949 19.375 120.534 18.8057 121.153 18.1974C121.839 17.5233 122.524 16.8413 123.21 16.1512C123.912 15.4451 124.581 14.7629 125.218 14.1048L125.219 14.1039L125.22 14.103C125.856 13.4292 126.427 12.8194 126.933 12.2737Z" fill="#0C0C4F"/>
<path d="M141.951 28.909L142.011 29.0082H144.152C144.243 29.0082 144.317 28.9355 144.317 28.8457V12.0961C144.317 12.0064 144.243 11.9336 144.152 11.9336H141.58V23.7588C141.133 23.0598 140.614 22.2904 140.024 21.4506C139.272 20.3578 138.463 19.2491 137.597 18.1247C136.748 16.9844 135.882 15.8839 134.999 14.8235C134.132 13.7463 133.313 12.8041 132.542 11.9976L132.481 11.9336H130.467C130.375 11.9336 130.301 12.0064 130.301 12.0961V28.8457C130.301 28.9355 130.375 29.0082 130.467 29.0082H133.039V16.3404C133.391 16.7488 133.765 17.2013 134.162 17.6982C134.698 18.3695 135.251 19.0891 135.821 19.8571L135.822 19.8579L135.822 19.8587C136.391 20.6102 136.961 21.3937 137.53 22.2095L137.531 22.2106L137.532 22.2117C138.118 23.0278 138.679 23.8358 139.216 24.6357L139.217 24.6365L139.217 24.6373C139.754 25.4207 140.25 26.1797 140.705 26.9145L140.705 26.9157L140.706 26.9172C141.178 27.6537 141.593 28.3175 141.951 28.909Z" fill="#0C0C4F"/>
<path d="M148.355 11.9336C148.264 11.9336 148.19 12.0064 148.19 12.0961V28.8457C148.19 28.9355 148.264 29.0082 148.355 29.0082H159.398C159.49 29.0082 159.564 28.9355 159.564 28.8457V26.6057H150.976V21.2394H158.071V18.8848H150.976V14.3363H158.952V12.0961C158.952 12.0064 158.878 11.9336 158.787 11.9336H148.355Z" fill="#0C0C4F"/>
<path d="M175.526 14.3604V12.0961C175.526 12.0064 175.452 11.9336 175.361 11.9336H162.238C162.147 11.9336 162.073 12.0064 162.073 12.0961V14.3604H167.406V29.0082H170.193V14.3604H175.526Z" fill="#0C0C4F"/>
<path d="M54.3002 28.8006L54.2997 28.8003C53.2889 28.3768 52.4483 27.7723 51.7818 26.9858L51.7808 26.9848L51.7803 26.9841C51.1204 26.1876 50.6922 25.2488 50.4931 24.1725C50.4832 24.1187 50.4956 24.0632 50.5279 24.0185C50.5599 23.9739 50.6093 23.944 50.6642 23.9355L52.8869 23.591C52.9922 23.5747 53.0926 23.6397 53.1191 23.7411C53.3894 24.7729 53.9453 25.5738 54.7882 26.1543C55.6436 26.7298 56.6526 27.0208 57.8234 27.0208C58.5829 27.0208 59.2616 26.9053 59.8625 26.6783C60.4705 26.4438 60.9422 26.1146 61.2865 25.6951C61.6254 25.2823 61.7963 24.7937 61.7963 24.2193C61.7963 23.8627 61.7322 23.5709 61.613 23.3363C61.6117 23.3342 61.6107 23.3321 61.6097 23.3299C61.4935 23.08 61.3312 22.8713 61.1225 22.7013C61.1204 22.6997 61.1184 22.698 61.1164 22.6963C60.9066 22.5121 60.6658 22.3564 60.3927 22.2297C60.1135 22.1 59.822 21.9931 59.5189 21.909L59.5161 21.9082L55.0824 20.6135C54.5889 20.468 54.1116 20.2859 53.6508 20.0675L53.6495 20.0669L53.648 20.0662C53.1801 19.8362 52.761 19.5521 52.3916 19.2137L52.3903 19.2126L52.3898 19.212C52.0152 18.8605 51.7182 18.4426 51.4983 17.9605L51.4978 17.9593C51.2745 17.4609 51.1662 16.8816 51.1662 16.2266C51.1662 15.1765 51.4423 14.2698 52.0035 13.5174L52.0038 13.5171C52.5673 12.7644 53.3273 12.1924 54.2763 11.7995C55.2241 11.4072 56.2872 11.2173 57.4625 11.2254C58.6539 11.2335 59.7254 11.4436 60.6731 11.8602C61.6282 12.2686 62.4203 12.8583 63.0459 13.629C63.6811 14.4014 64.1045 15.3231 64.3199 16.3889C64.3305 16.4426 64.3188 16.4983 64.2876 16.5434C64.256 16.5885 64.2075 16.6192 64.1525 16.6286L61.8696 17.0206C61.8154 17.0299 61.7597 17.0176 61.7147 16.9864C61.6699 16.9553 61.6394 16.9078 61.6303 16.8545C61.5148 16.1895 61.259 15.6254 60.8651 15.1564L60.8631 15.1537C60.4738 14.6734 59.9853 14.3054 59.3948 14.0491L59.3928 14.0482C58.8011 13.7838 58.1494 13.6465 57.4346 13.6388C56.7495 13.6312 56.1372 13.7384 55.5943 13.9563C55.0501 14.1749 54.6252 14.4765 54.3119 14.8579L54.3107 14.8593C54.0035 15.2262 53.8504 15.6475 53.8504 16.1316C53.8504 16.6122 53.9898 16.983 54.2537 17.2633C54.5382 17.5578 54.8884 17.7955 55.307 17.9753C55.7507 18.1544 56.1814 18.3019 56.5992 18.4182L56.6002 18.4185L59.909 19.3564C60.2948 19.4613 60.7352 19.6058 61.2298 19.7892C61.7475 19.978 62.2467 20.2442 62.7273 20.5862C63.2221 20.9302 63.6282 21.3896 63.9473 21.9592C64.2754 22.5362 64.4325 23.2538 64.4325 24.1005C64.4325 24.9516 64.2576 25.7166 63.9023 26.3903C63.5575 27.0598 63.0733 27.6221 62.4524 28.0758L62.4511 28.0768C61.8337 28.5198 61.1189 28.8543 60.3093 29.0818C59.4996 29.3173 58.6343 29.4343 57.7148 29.4343C56.4589 29.4343 55.3197 29.2243 54.3002 28.8006Z" fill="#0C0C4F"/>
<path fill-rule="evenodd" clip-rule="evenodd" d="M91.586 26.754L91.5863 26.7547L91.5865 26.7555C91.8317 27.4467 92.0933 28.154 92.371 28.877L92.4216 29.0082H95.2167C95.3314 29.0082 95.4112 28.8962 95.3721 28.7902L95.352 28.7357C94.6992 26.9715 94.0874 25.3432 93.5163 23.8513C92.9452 22.3429 92.3819 20.9144 91.8268 19.5659C91.288 18.2174 90.7489 16.9329 90.2098 15.7124C89.669 14.4717 89.0999 13.2433 88.5071 12.0258C88.4797 11.9694 88.4217 11.9336 88.3581 11.9336H86.1285C86.065 11.9336 86.007 11.9694 85.9795 12.0258C85.3868 13.2432 84.8177 14.4716 84.2768 15.7123C83.738 16.9325 83.1908 18.2167 82.6359 19.5649L82.6354 19.5659L82.6352 19.5669C82.0963 20.9149 81.5415 22.3431 80.9703 23.8513C80.3992 25.3432 79.7871 26.9715 79.1347 28.7357L79.1146 28.7902C79.0754 28.8962 79.1553 29.0082 79.2699 29.0082H81.9458H82.639L82.7002 28.9435C83.3456 28.2622 84.0673 27.5935 84.865 26.9377L84.8658 26.937L84.8665 26.9365C85.6673 26.2642 86.5023 25.6407 87.3715 25.066L87.3733 25.0647L87.3753 25.0632C88.2315 24.4687 89.093 23.935 89.9599 23.4623L89.9609 23.4617L89.9619 23.4612C90.0898 23.3896 90.2167 23.3201 90.3431 23.2526L90.828 24.615L90.8282 24.6154L90.8287 24.6167C91.0891 25.3371 91.3416 26.0497 91.586 26.754ZM88.5791 18.6547L88.5796 18.6561L88.5801 18.6575C88.8481 19.3245 89.1161 20.0042 89.3841 20.6967C88.6971 21.0296 87.9698 21.4329 87.2024 21.9062C86.2508 22.4929 85.3074 23.1324 84.3719 23.8248C84.1151 24.0148 83.8621 24.2067 83.6126 24.4006L84.2283 22.6717C84.7307 21.2854 85.2332 19.9469 85.7357 18.6561C86.198 17.4919 86.6791 16.3722 87.1795 15.2969C87.6649 16.3718 88.1315 17.491 88.5791 18.6547Z" fill="#0C0C4F"/>
<path fill-rule="evenodd" clip-rule="evenodd" d="M98.2058 11.8055C98.1145 11.8055 98.0405 11.8783 98.0405 11.968V28.8559C98.0405 28.9457 98.1145 29.0184 98.2058 29.0184H100.567V22.8093H104.016C104.404 23.2661 104.783 23.7441 105.152 24.2431L105.153 24.245L105.154 24.2469C105.758 25.0252 106.316 25.8369 106.828 26.6824L106.829 26.6832L106.829 26.6842C107.293 27.4324 107.698 28.1714 108.044 28.9012L108.099 29.0184H110.893C111.013 29.0184 111.093 28.8972 111.043 28.7902C110.722 28.0979 110.373 27.4199 109.987 26.7597C109.461 25.8367 108.885 24.923 108.257 24.0185C107.899 23.5015 107.533 22.9994 107.159 22.512C108.201 22.1987 109.026 21.6322 109.622 20.81L109.622 20.8094C110.338 19.8143 110.693 18.644 110.693 17.3074C110.693 16.3888 110.531 15.5484 110.202 14.789C109.872 14.0185 109.376 13.3795 108.714 12.8754C108.057 12.3687 107.248 12.0462 106.295 11.9016C106.073 11.8613 105.843 11.8372 105.606 11.829C105.375 11.8134 105.173 11.8054 105.002 11.8054C104.278 11.8054 103.553 11.8053 102.829 11.8052C101.288 11.8051 99.7468 11.805 98.2058 11.8055ZM108.119 17.3074C108.119 17.751 108.044 18.1875 107.893 18.6178C107.746 19.0311 107.51 19.3934 107.184 19.7064C106.876 20.0028 106.469 20.213 105.953 20.3306C105.79 20.3671 105.614 20.393 105.425 20.4078L105.424 20.4078L105.424 20.4079C105.238 20.4231 105.074 20.4305 104.931 20.4305H100.567V14.1842H104.931C105.074 14.1842 105.238 14.1916 105.424 14.2069L105.429 14.2072L105.433 14.2074C105.617 14.2146 105.787 14.2398 105.945 14.2821L105.95 14.2835L105.955 14.2846C106.469 14.3944 106.875 14.6039 107.183 14.9067L107.183 14.9075L107.184 14.9083C107.51 15.2209 107.745 15.5867 107.893 16.0081L107.893 16.0086L107.894 16.0091C108.044 16.4311 108.119 16.8636 108.119 17.3074Z" fill="#0C0C4F"/>
</svg>
